<mxfile host="app.diagrams.net" modified="2023-05-08T06:19:05.197Z" agent="Mozilla/5.0 (Windows NT 10.0; Win64; x64) AppleWebKit/537.36 (KHTML, like Gecko) Chrome/112.0.0.0 Safari/537.36 Edg/112.0.1722.48" etag="4T8Qilf9AqO9czc5bH4M" version="21.2.9" type="github">
  <diagram name="Page-1" id="c4acf3e9-155e-7222-9cf6-157b1a14988f">
    <mxGraphModel dx="1050" dy="587" grid="1" gridSize="10" guides="1" tooltips="1" connect="1" arrows="1" fold="1" page="1" pageScale="1" pageWidth="850" pageHeight="1100" background="none" math="0" shadow="0">
      <root>
        <mxCell id="0" />
        <mxCell id="1" parent="0" />
        <mxCell id="HLpt336xV4ShpxwiS3cw-2" value="" style="shape=image;verticalLabelPosition=bottom;labelBackgroundColor=default;verticalAlign=top;aspect=fixed;imageAspect=0;image=data:image/png,iVBORw0KGgoAAAANSUhEUgAAARQAAAJICAYAAACg1BtoAAAAAXNSR0IArs4c6QAAAARnQU1BAACxjwv8YQUAAAAJcEhZcwAAEnQAABJ0Ad5mH3gAAIlBSURBVHhe7b0NcBvXted5QPDTkizzQ7L8JX/pAyGQeCaONNFEiSfjTZTPNf1WgEZvKpuwRuNXKXknqVfZklJ5VQCyNbVU1Xt5fjNPW7svzFPy4lghoOxCdpREHns8XsumQ3pjSwYoSJZGsiRbtE1RH7REEV+959x7G2iAANhoNEiCPL/KNW7f7tvdUHj/OOfc030dGgImGB0dhVWrVqmt+cHk5CS0tbWprfnDfLyv+fpvxX9X5qmHv6sG9ckwDFM1LCgMw9gGCwrDMLbBgsIwjG1MC8q+/PLLqsYwDFOaNWvWQEdHR15QtqigNDc3w/Lly1ULwzBMjmvXrsHU1JR5QVmxYgUsWbJEtTAMw0juvfdeiEajcOnSpaKCwjEUhmFsgwWFYRjbYEFhGMY2WFAYhrENFhSGYWyDBYVhGNtgQWEYxjZYUBiGsQ0WFIZhbIMFhWEY22BBqRBz77djmMUJC0oZSDvS+J9EBmAKy/U0wBUsE1hu4g5qS+H+DIsMwwhYUIpAVkhac8DVFMDIDYAXLmkQ+gDgmQ80OIDl16Ma7Mft349p8OaEBh8mAJIsLAzDglIIacJVtED+eE2Dgx9p8PoVDT5IOYQl0uRwQFODLA6sj6PgHJ1AYRkH+K+XAT5AYcmwT8QsYlhQDJB7c2ZSWh6xjzUUFyUeuA/1YxoN2Nio9l+4qcHz4xq8cU26QQuDk3DypCyVoPeprBezEGBBUZAIHL/hgJcva3AT3R0SkkpworhkUFpieI5X0FqZRCun3jn51JPw5S9/GcuT8JRZdTi0U/X5MjxpuhOzUGBBUZy+ocHw1QzWpMVhBb3f2ZsAb6ArRBYPwywmWFAQclfe/NghXJxirk0lUHfSkXdRVI59LJpM89HN9+CPl/4L/Onyy/DOxDHVyjD1w6IXFJoK/u84+GkquJyXo2kZSCcTkJq6KQrVtQxZNNOh89C08jk874eJmc2UdCYNr479Dl788Ddw5vpxODlxFP6/y/8Nzt84pY5gmPpg0QvKRwkKxDqgsYyYpBI34er75+DdwZcg/vvfQPwPv4F3X/9vcPncaUiiuEibJB+KqVxOoSuF556J//bR/yPE447We+HfrP4Ponxx5eNCZN6fPKuOYpj5z6IWlJtoYHyQdAAZEcWHvQMmr1yCky88C//fL/fCu0Mvw6UzJ+DSfz8B7/7xv8FboZ/Bid+HYeraNTw0/wy0mcpoYmr5CpZyfJzC/sgdbfeKT2Jly93iczJ9XXwuRE6ePASHDhmK2dkkPM7Yb+Zu+myV2lSc1Pur7UIs398iZlG/9f5SEuC1q5SY5kCLQjXqoCLcvDoOp1/+A1w8Ngy33XM/rPzEP4Nb77wHHA1OuD72AXwUP4r1Rlj35R5ovfU2mRFngLZuadDg08scsPYW2VaMAxf+TxSfBPyLji/B/Us/oVoBfn3uP8GGjn8NDy71qJbZ5eRTX4Yvi5madfD955+H76+T7WU5tBPu23lIVNd9/3l4vkink3jMk3hM8eH5ddh7di/+twgnn4KdTz6FA1ttG1mH/f4e+xW5x0M77wN5S/LcawuuX3iflu9vEcBvvS/DDbRQLqOFUjR2guJw6b+fFGJy+ycegk95/x3ct+lfw2133w/L71wNdz30L+Ah378DT8+/LSomOpMZ6fqUZRElwwmRMg7mdevg66gC+FEeEqovG8RE76c2UQVg55e/PPP0NopSabGo4v4YwaIWlBQKyhSO5Wl6QtbJtSsiRtJ6Wwfc7n4YRWM5ZFJo0tDgx6Jl0viJ/4DOxpKCQOel/BZ65qcclEKnc3HyXWGZUCGGx/9rdruw/JfRkDimbqDBrI/4dd+H58+ehefR8tm7Fy2E58/C2bNY//5aud8I9qNBLiBLhI7V+9E59n5fCctJeAotmHKa8ru/o/1fFxbXWexL1/z7rym1sHp/TJaGyclJMJbFBMVOij1/43A0QGpqEkXlMrQsWQZLOleAlp5BFUqBYkPP+ZRjRcudsLLlLmh1lvGLFgLvvJMd7F//ni4CRtAa+P73C9wJo0iQmEx3a9Z9/fvw97rLcvJ38LuSikKxEHLf9qL7pp/EYH1Yuj/GqB8N5P8Yy2KimKejQ6JCloo8qtyR5SEtman3v1rZA//69v8pLyi70HnnnZKjPh+DQKz7/vdKDuZ1X/uaEoCT8LvSioLn+HtTsSDT98fk6ceidnma8dtPC8YilHPS2NoGSztXwuTVcbhy4UxRVaDjSuWi6NDzPs0VpvEvWNauzf7qU1r/TnQvZhq2J3/3O3XMOvia7poUY91a0J2Rk2hplGLt2jLnsHB/TD6LWlCaHBq0OYu4PeimtCxbDp33r4fU5HV4/+gf4cr5s5BJp3IllYKJDy7CR+/ERJJbMei0jeIaM/g8i4V1BtcEh+ohCoDep4KgM45cdH2+fB/cd1+pshMdmplYR5pRmqrujyEWtaAsQfOkq6n0KweW33M/3LPxEbj2/nk4duAf4dSLv4UP48fgw+NvwckXn4Njv/k5nPwvEfggfhQaGvFEBdBp6RodjYtTUIpZA2KKdu/3DXEQtAIO0QOF9+HAnR5Qtdf1QCtm+i3lUen9MfksckEBWNlMz/AUAdWgeckyMVV8/+b/QTS9d2wIRg6FYOR3B+Di28PgaGiAez79L2HVJ/65sFgKofMuFdeo93/mkxSvNEU5d0OHgqg0U/O8CLDmRvjJQ0+hRVDK0lgH3xezLSbK3urCptbujyEWucsDcHuTBksbS4tKU9sSeOALX4EN3/4PsO5/eAxW/4t/BQ9s/hK4v7kdNvzP/wvcj/saGhvpYNlHQVukI7e3OERyWz2yzuAfmLUUcsfN4F4g68QU8PNwNm/m5hD8nSGZJGfloKjhOSkvZMaielSLmftj8lnUgkKQy7O2rdyrBnAHCkvr8g64G62Rtf/662ixfBlWuj6FFsxSmZtSBHKjVuC517TVp5gIvv617KzKyaf+zsQv8yH4nX7Quq9BuRhqHmLg4qBVm0Yrxyhqh7Inn2XK3B+Tz6IXFLIi7mslYdFmeH2jTGbT0lhEUlvpYynIS+7UA20OWIaflbCy9W74H+/qNVU2d1Vn2s/M1+Fr2Uscgp1lMkzJgji0M+cO5KZxq+Tr38tN8x76uxkzYTl4OrcsekEhupoBNtyKromzhOtTAdSfRGrdLQ4slZ/N6XDifSwzVdoaa/+8VV6ClwhO7oSnDhketMMKxRYo7V1PZs2fLckh09qLPYtDMyo5C8holeAWfP97WdsAnhLXKaIaKvX+y39n3Yqxdn+MkUX9cGAhZyY1GJ5wwA1hgGhAL6KuBOrT0kBCAvDpZajWCyX9hISkrHVioMA9MJJ72FBC8Q4arHlWBaW8Pz89S7WwLyH74z7jCb6+F84WBGULHw4sZddVc3+LBX44sALuRxflX90G0NmUE4MCvS0J2TbLGh3w6VsBPoNlQeWy4SClGY/vF+a850Fp6fK4UgN23dp8Nyj/lQJ6/+KDVU7nfh0HuWpA9JdhS9ahlmH/KmZ4qrk/RsIWShGSGYATkw6IX8/AZNohYisaCoT8lyKlkNYL1SjTtgll+Z4WgE8uhYpjJvWIGMTvvAMiNInmP+WXGgf6zNBAxf7yBGImp6L+NND161vpPyNV3t8CZiYLhQWlDClUkfM3M/DelAM+SmjiyWTx3lncRxmw7WiR3NWiwT2tDhGEZZiFDguKzVD6GmWdMMxihGMoNsNiwjClYUFhGMY2WFAYhrENFhSGYWyDBYVhGNtgQWEYxjZYUBiGsQ0WFIZhbIMFhWEY22BBYRjGNlhQGIaxDRYUhmFso+TDgYttWVKGYWbm4Ycftva08UcffaRaGIZhJI888og1Qenu7lYtDMMwOfj1BQzDzAosKAzD2AYLCsMwtsGCwjCMbbCgMAxjGywoDMPYRk2mjcUawFdGIH35BGQmzqrW6Tiab4WmB/4MHK1dqoVhmPnO7E4boz4l4/8IyXOHy4oJoSWuQeLEP0Hq3B8AkhOqlWGYeqWBUuyNpSpSNyB5agCF4qpqMIGWgfR4FKaO/0x8MgxTXxj1o4HMFWOxijb5ESRO/goy1y+olgrJpKSlggLDMEz9YNQPW1yexMhP0XX5RWWWSQmmjv4E0h8OqS2GYeqJ6gVF00wLyZvxUfjlc0fhwPMxeP3YebgxmVB78km9/8qM8ZeZ0SBz4Tikhp6DxIs/h9TbL4F2/YraxzBMLahaUDJX4qpWnmcOHYP+37whhOSl4TNCWMavlorZaJB+7yVVt8bUs0/BVOQnkBx6FtLHX4Xky8/A1NN/Bemzx9QRzMIjBuGAD3w+HwRiqomZVaoSFJoeTl08orZK896HE/DqW+dE/UuffRAeefg+eGj9Krh71XLRVozMzUuqZo3MuRHx2dB5NzTctR6gqRW05JSwVgDvm1mYxA6EIRwOw4j8v982YjFWKDNUJSipMxFT7s4f0Soh7r+rHXoe/QT4vuKBJ7Z+RrSVI3P9fVWzRtPnvNCy3Q8tj/8A2v7iP4OjdQnA5ASkT/5RHcEw5YkFPOBwOMATtFmhFijWBSWTgMzH0uqYiURSztw0NzrFp1ky106rmjUcza2qpmhoFB9asnjshmGY6rAsKJkJFBOttq5D5toZVbOZWk5Nx8dhDEslVHq8DvUbU3XGAujG2O3IkGtUyTmtulKVXme2sCwomsnM1qd/exROvCv/7C+OfSyCsVRGsT4jyWuqYo7MpQuQeGGfKETq+GvZbSra1A3Rnj7xOqTeOCTqthA/BZFN+6GvfS/04We/qvdvGoKSIev4EPbB48Vx6vjeIRSIcTjSS+c4DEeKdRbXyvXrF9fEYyPWRGlREAuAz+MBj8cHYbHpAw+6MQ5qo0+HB3y0w4A4BvdvC6phG5bbVHyFEd9YGM9P50HXSD8nXisQLjHkxf3kjhefvgAKRAwCPnmfRYPKZq9T8H3DeE7qQ6Xwe9qNdUG58YGqlcf4pFAynYHxKzdESSRntm601M2Kclu061chHX9NFCIzejq7LdrSSdn+wRlIn7FrtocE4DDEycpwrQFXjyz0dNJYfBgHP4lEAZHDKALD2Afrrg7VpwPbh1EkhqXlUcxqQREioaF+XdlrYT8UGRKhSEQdx0xjhH7RcdxRTMQTxFHl9eL/vOAWe2Ni0FmaGcLBKwYu9nW75Tm9XjwrDv4gnnPaAEZhcniC4njskDs+HMTzBGFkhO6zSLymwusYv69PdlLftbZYfjgwdeEFSI+9pbbK8+vfR+GVP52Fdas74Xvf2qRazdHs2QmORnMZvOlzMUg8+5TaKk/D7Q9Ai/eHaqsaxiHedwqgZyO4XKpJgJZEOw5+rLn27YSeHtlqbO/atR127EZByILihFaHtEw6YPPgdticPafxfNvxfIZ+QmhQiGAN9FzeAnm3sajAX3j8ZSajwhvSIOTVm2kwBpWL4IVQNAQ0FiW5PtgJtGwniRQgccJp+1AFwOeQVoA3FMXrGYZs9pp4PQ2vJxpzx7v9UYgGjEPccB849P3RKOR2V3idvO9beK7qqcnDgY6mZapWOxwNTnA4CwKr8w60MHYXiglB1oOsGa2NsT60TKji2gA9eWJCoIjs2yCsm0Ky/Xq25IsJ4doIm8W1TkGcrZSyeENGMSHcEPAroSDrQNZMEQugpUEVFJu8QU64AyBPS9PYoiV3vNsPA9NGON7HgL+oFVHpdYy4/QO2islMWBaUhlsfULXaIa6Bfl9dIdwVGtin8FO1GRg7IcWl6zHpFk0DXaDp7WgFHZT9XNivGF3rpchYDfAuDshNUFUjaI2LMYeuhvnJYXSTDkj5IfejGN3dciST+yE+UbAI91bd1SoA3ZLpfkHl18nhhq2FAlRjrFsobSvE+0xqiePW4oNn3jEtKHsYIr3FgqokNrLWhcJRHBSUMj5LvFcGZAtL/x4Wkrki7JMBz8IiXKUsaP0otepG4ShON+5T1SKYu44RFMrZ1RPrgkI0LF+rarXBufxBVZvHiACrDMpSoHTzPnRJBrfDjsGdsGNXoWjoglJeNMqRC8aWKIs3gDJn5IKkxctWMajR+hHjHq0Qi+8uM3eduaUqQXF2fhL/W0OXZN7HT8bhyJ5TokaB1x2DW2CzGNSlBENvz1kq0ym3jwK5KFgkWiXK5sL4ClNzuv0hCIVKl4BwO3TrI1bmsQBddIpj7jpzS1WCQq9ubHE/obbsxdn1z1VtPlPe4tDjJTlyx8UPSiGaRuS0DL7mYaIfM8u4wa0sDXp2aGZMHI/t0/dUep25pSpBEZiY7fnmF9fDj598FL7z+KdVS3lIqJx3fF5tmcd51zpo/XafqdL8te+qXnZQxKpAV6hYXkg2qFp0/ymI9BYXDNcuNfsTGS6RbzIuc2GY2lBkBsjrV7My4WCJhLEYhA2BUnJLBGFfkePD4CuRdVbpdeaS6gUFca54WNWKs6S1CTqXt8HypS2qpTSUc9L0wOPgcDarlgpwNoFjWae5suQ21akaKG4ha3FKLOsbgnhkSCSZ9fWO474i7oeY9pVVCrD2U/A2IhPT+inPpGeDIffEgJgapvOhcFA/kR1Ls0nyev3teH0OzNqO27tVDuZYELb5AhAIYNEzU8WULe2lxDjKXqWsVZq+xWMo45UycI0PFYppX1kVx9NrFvB4eawPwl4/+It5LZVeZw6xRVAa73wEnB3F/iUqp+l+FJPm0q81mG9Qkll2oO9B66F3GAe6al8vjynEmJg2JsREpc6j2OzYV3pmi/rt2KVn4cp+8npoIVFAGPcxNoODeUCN8hhaCMFgENQsroASzaJ+OQ0cE1mr9D4WPA5FJ+b2gl/PcVEYE9NiKAp0PB1LYhOdljiXo9LrzBW2L6OhTbwLidMV+nqOBnB2PiTcHEuWybygfDylFNm8kWz+iZ4RW5gpWwDlu6hq8dwVxl5w4AohcZeeisUDslpjItU9+2Bg9lg9I3aG7NYKr2M35TJla7IuT/rSMUiNDppaGsPZ7gLnqs+Bo6VdtSxy9DR61wbYMbiRhWIxoafMu/04aAOzLhRmmd11eRBn56egxf0X0Lz2z+UiXsbpX7RGKCHOedtaaFz9VWi89xssJlnoQUN6JqdMJi2zQIlBYJt8/qZkJm0dUBMLpShaBrTkxzXPrp3/kEuDotHzoIh5ZEWDYiJ71BPIi/4hv4UKuTRBGPFuFTGP7AgbCYvYjIz1Gh8mnJ/MusvDlCP31HBRXCgm+1BMWE0WILmnhoviRjEZKHx4cf7BgjIPodmdePw0jJ2Q213rHxSp85UEdJn6hGZ3wrHci7S7u2Xq/Gw/d2MVFhSGYWxj1oOyDMMsTlhQGIaxDRYUhmFsgwWFYRjbYEFhGMY2WFAYhrENFhSGYWyDBYVhGNtgQWEYxjYaJicnwVgYhmEqwagfDZQ2aywMwzCVYNQPdnkYhrENFhSGYWyj5oKSufoOpMfehNTFVyB17g+QHh2E9HgMtMmP1BEMwywU7H99AZ4ucbwftMRV1TAD9ILq9m5ovONzptb4YRhmbpm91xekbkDy1IB5MSG0DFosUZg6/jPxyTBM/WKboJALkzj5K8hcv6BaKiSTEi4RCQzDMPWJLYJCYpI8tb8yy6QEqfOHVY1hmHqjekGhmMmJX4CWTqiG0rwZH4VfPncUDjwfg9ePnYcbk9P7UMB26q2/gczEWdViFQ0yF45Daug5SLz4c0i9/RJo16+ofYuFcYj30eqCQ+pt+sx8glYAnC9rEttF1YKSuWLuL/WZQ8eg/zdvCCF5afiMEJbxq6UyczVIv/eSqltj6tmnYCryE0gOPQvp469C8uVnYOrpv4L02WPqiMXB2EFa//h0bpVBpgwxCAd84PPQesEOcFChOhZfwOaBH/aJNYp9nm1g96nnkqoERcukIXXxiNoqzXsfTsCrb50T9S999kF45OH74KH1q+DuVaXXMM7cvKRq1sick68Ub+i8GxruWg/Q1ApackpYK4D3zTB50Kp9YtFxaTVkxzjVsYQPhHNtBWSXFGWqE5TM5RFTcZMTZ+XvY0tTI/Q8+gnwfcUDT2z9jGgrS/6MdsU4126Elu1+aHn8B9Dq+xHgTw7A5ASkL55WRzAMEUZLQa7aB24/hKIa/unpJQrRkB+8RbIoYgGPsGI8QbUeRiV4Q/LcWEquYVyHWBeUTAJSF15QG+X58NJ18XnfnbeJT7OkRme2fsrhvBstE4WjfRU42uSqhdr4++KTYYhYICgX31JrCucvtOUGtzcAoVAt1hqe/YXOa41lQclMoAuj1dZ1yFw7o2o2U/Op6XEYi4+rehnwGFPHVYDd51sMjIwol6V7Hg9woxtmkrlwxSwLipacULXyPP3bo3DiXenyXBz7WARjqYxifUaS11TFHJlLFyDxwj5RiNTx17LbVLSpG6I9feJ1SL1xSNTtYxzivfuhr30vlv3Qv0nVNx3On2GJn4JIdl/uuP5NQ9OXJ40PiWP76Ry0mT3/XohE5CECcZxsz7uu2s2UpxuFRIDCYmYIxgIUUPXAtqA6WgRYC4K3sYAM7nrk0qNhn3SPqPiooWB/loJ2cS09OCz64zXyOhQg+svr0P2IT18Av1cMAngPdN5aBoGtC8qND1StPMYwSDKdgfErN0RJJGe2brTUzYpyW7TrVyEdf00UIjN6Orst2tJJ2f7BGUifsXG2Bwd0P4pIJELWQQd09awRy4qK9YnJChEHEeNwpJcEBo9zqWNo+VHcMxYfRlEYmjYbQxbHGCrDWJ86vwvPr/YJIodRRNQi67hPnhOPEcI1zLM7JnB7t0rLJBbEARdQi5ZXz4gI6NIYJxHAijvfAtL3F2Ls5wmienjVUqVib0yIU1FRQGFzeNSi63gt6uMl/y1M3ysoLLFYzEK8pwIsP8tD8ZP02Ftqqzy//n0UXvnTWVi3uhO+961NqtUczZ6d4Gg0956W9LkYJJ59Sm2Vp+H2B6DF+0O1VQ0oEmgVHKEB3bMFduyTApGFBCErApQXcgqP21iwGHpuAXXXvp3Q0yNbhVBlRaEDNg9uh80l+nXt2g47dnfIZoHhvor2ZYzEyMow/PS7vSEYCOmDuDhywOPopQArHpsHzRrpgV48iz9aEHzN7vdCSAvhfxV5/XBf1Lh4OloZaHUIw2jaNXMLsbv9UYjmXyzXr9i9VEhNnuVxzMKDfI4GJzicrWprfjLWd1gOWteG6WJC5FkUaEHsLhQTgqwKWSsVA+natWWaIIz1oWVCFbx2T56YECgi+zZMvx+mKCQgmmHwCoFB94JERg5u67j9A5YGsDdkFBPCDQG/EpEC98wYWB6YdjHsN+AvK452YX2Wp2mJqtSQxqVyqnceM3ZCCkDXY0XEZCaEO0OJZ6eEW1MacmUKBQOtnYMzXLvQPWLK4yaLQJPTxGL04aBVCWjW3SA3bM1XBZOQu6KqRtBzkLc2AkbnRQ8su7eWsKrQBbL4/oCKsCwozg4POJrlNGytcK76l6o2X5HxDaILB68ppgVlKTVeWTklQWEo466Uvnb5fkxxxDSxEBY1OGOUp1IQPDUNCoAVPakIFD6lLt0lL9ZNk1g1x7qFgjQsX6tqtcG5/EFVm6/ogmJy4EYOq1mfcTx+DbokW6BncDvsGNwJO3aZFKQsFV6bqRhyg6JR3VUIQ9iaoswCaK2o+IjV1xjZRVWC4uz8JP63hi7JPI+f5AZzzlIpzTgc2XNK1CjwumNwC2wWM0FWBcHMtc3cF1MWdwD0sEV43iqKbn3E0PURDUXQRae2VCUojtYudH1qZEc5qrq1WSInBvGDUixKU96i0GMx5jFx7chpzkWxEfdc//yXxI33JmslRQ/bZ0MOqx61jau/omql+eYX18OPn3wUvvP4p1VLeUiomj1Pqi3zOO9aB63f7jNVmr/2XdWrOly71EwK5YP0FREFCryqqqSI1YB98xLVTOJ6bI2sFO1/CiK9M4kcQ1Beh8gTKUYsAJQKQpSMTxTMuMwFlHMiCPuKJL6FwVc2G84+bDEDnCseVrXiLGltgs7lbbB8aYtqKQ3lnDQ98Dg4nM2qpQKcTeBY1mmuLKnsuaKSuDZCj4p/jO3ZL2Ikkb4hiGOJUGariJnQ3tzUMGW8imMiQ3CEjukdLzKLY4KeLdmclXjvXuin4G7klDhnP+Wn9Gzg3BNTyGQxmV2KA9Ini4cyTvWcEG8IClNNjAlx23wBCASw2JUVVymG+wv7KDvWh/cSltmxlJ/i9YO/Rs6EEVsEpfHOR2xzfZruRzFpLv1ag/lI1+7tsINyPmjw0jTwnmGIYImLzNYHs66Ja9922CyEY1we0zuMAqDac88xVgT17VFiNCbEhEQFr6uS7JiZ6aYsVPXnK156RO4BFpnF6saxGp2euEa4AzCgRmksHIRgMAgH5tBUofsMqSnqGN5/EEUlSAJHweVi918DbH3rffrDIUi9/wrWrL12QLg6ru+orTrF6OKUzAMpH0+xSjYpjvNPLJP3QB2qjLmfSUppp0883p7f1arJfo/sd9AzaWubKWv/MhpI+tIxSI0OAph4gNDZ7gLnqs+Bo6VdtTAMYzt6Sr96RUM1ujd7y2gonJ2fghb3X0Dz2j8XVkfe9K+jQSTEOW9bC42rvwqN936DxYRhakoMAttkLKhkJq1N1MRCKYqWAS35cc2zaxlmcUIuTRBGvFvB7/fm0uxHwiK2I2PFBQ8iWmTWLZSiKMuEYZhaQc8eBdX7VFTx6a8zUE8uywNrxuxZKAzD1Bya3QnHwtmM2e5u9S4VG/2cWQ/KMgyzcJkfLg/DMAseFhSGYWyDBYVhGNtgQWEYxjYaRkdHwVgYhmHMcvXq1Tz9aFi1ahUYC8MwjFmWL1+epx/s8jAMYxssKAzD2AYLCsMwtsGCwjCMbbCgMAxjGywoDMPYBgsKwzC2UXNByVx9B9Jjb0Lq4iuQOvcHSI8OQno8BtrkR+oIhmEWCjURFC2Thsz425A8fQCSZw5C6sKLkP7gjygkUUiNvorC8ntInPgFJEb+AbSb+avWMAxTv9grKKkbkHzn15A49reQPHcYMhNn1Y7iaIlrkIj/HKbe+muYOvaUEByGYeoX2wSFXJjEyV9B5voF1VIhmZRwiejdswzD1Ce2CAqJSfLUfrQ4rqoW66TOH1Y1hmHqjeoFRdNEPERLJ1RDad6Mj8IvnzsKB56PwevHzsONyel9KGA79dbfzOguzYwGmQvHITX0HCRe/Dmk3n4JtOtX1D6GYWpB1YKSuWJuff9nDh2D/t+8IYTkpeEzQljGr06qvYVokH7vJVW3xtSzT8FU5CeQHHoW0sdfheTLz8DU038F6bPH1BHzlXGI9x2GSO+QWhPZLFb7MXOFWPbUuFLhAqAqQaHZnNTFI2qrNO99OAGvvnVO1L/02QfhkYfvg4fWr4K7V5Vewzhz85KqWSNzTr72u6Hzbmi4az1AUytoySlhrQDe93xm7OApiEdO55Y0NYnVfoxODMIBn1yGwuEQi6c71HIUvoDNAz9Mi7HTtbaB3aeeS6oSlMzlEVNxkxNn5Z94S1Mj9Dz6CfB9xQNPbP2MaCtL/gv5K8a5diO0bPdDy+M/gFbfjwD/QgAmJyB98bQ6gmEUtFSnA4UjKK2G7BinOpbwgXCurYC89ZAXOdYFJZOA1IUX1EZ5Prx0XXzed+dt4tMsqdGZrZ9yOO9Gy0ThaF8Fjja50Jg2/r74ZBhJGC0FuVQnuP0Qimr4W6aXKERDfvAWWVUmFvAIK8YTVIvgVII3JM+NpZqFy+cblgUlM4EujFZb1yFz7Yyq2QxPTTMGYoEgSgqiFhL35g1wN7i9AQiFqltgvDh4blVbKFgWFC05oWrlefq3R+HEu9LluTj2sQjGUhnF+owkr6mKOTKXLkDihX2iEKnjr2W3qWhTN0R7+sTrkHrjkKjbTnwcxrBUQqXH61jtNxN0XtNxGPF9Vb0cZo+bA0ZGlMvSPY8HuNENM8lcuGJVCIoJQUAGj55Hl0cee+36TTHLQ+XqxzdFWzm09BSqREptzYx2/Sqk46+JQmRGT2e3RVs6Kds/OAPpMzbO9sRPQWTTfuhr3wt9+Nmv6v2bhqDkGIoPYR88Xhyn9z1c+nidSvuJ4+me5DHxXtUHSyQiDxGI75A7b78675FIEdGa9n1Vv75T6gCF2ePmmG4UEgEKi5khGAtQQNUD24LqaBFgLQjexgJqjWGfsH7CPukeUfFRQ8H+LAXt4lp6cFj0x2vkdShA9JfXofsRn74Afq8YBPAe6Ly1DAJbj6HQYDfB3h99Az7/6ftEfd3qTrFNZf19XaKtLOTDZqQIzF/G4UgvDlayFlxrwNUjC327sfgwDqih6b/2kcM4uIbl9K6rQ/XpgC4xAIdLWwcW+wmLA/uM9e1HEaH7xD5qnwBFRwgOHtOV/Q4dQhCOoADlC49+7LjhWPV9T8hDBGaPmwe4vVulZRIL4oALyMXFbWBEBHRpjJMIYMWdbwHp+wsx9vMEUT28an1isTcmxKmoKKCwOTz64uhu0cdL/luYvldQWGKxmIV4TwVYXtuYHvajJ4jN8OvfR+GVP50VgvK9b21SrTPjaHBC8ye/L2dnTJA+F4PEs0+prfI03P4AtHh/qLaqgfI/8Be3ZyO4XKpJgIO8XVoFrn07oadHthrbu3Zthx27ceBmQXHCX/IjtBM6YPPgdticPafFfmJg62JTeE7CeJ/b8T4N5832XQM9l7cAdYv3Sstm+j2QcJEgybrZ4+YLMbIyDD/9bm8IBkL6IC6OHPA4einAisfmQbNGeqAXz+KPFgRfs/u9ENJC+F9FXj/cF8V92X5oZaDVIQyjadcMg88hrRq3PwrR/Ivl+hW7lwqpzdrGTUtUpYY0LjUtJnMHWgq7C8WEoF9kWTPGOsb60MKgimsD9BQMNDHg923Itx4UVvsZ6dq1pUBMDOft2ZIvJoRrI2wW34HyW+gzFwfpQiunkJxImD1u/kACohkGrxAYdC9IZOTgto7bP2BpAHtDRjEh3BDwKxEpcM+MgeWBaRfDfgP+suJoF5YFpaHtdlWrHQ23rFS1OkK4FzQAT2UHVQ60Zg5Kcel6TJr/0yh0RwRW+xkhF6lwcOfO68LzFqNrvewjRRHP8ZjcplhM0fiKwOxx8ww3WQSanCYWow8HrUpAs+4GuWFrviqYhNwVVTWCnoO8tREwOi96YNm9tYRVhS5QeZ/DHiwLiqNtBThXPKy2akPjPVtUbZ4zLfhIKfCHlQtSnGK/3BIUhjK/4Fb7zbSfXBRx/wWlf0++GHTt1q0cih3Rd94PEXT5CuM3Zo+bj4hpYiEsanDGKE+lIHhqGhQAK3pSESh8Sl26S16smyaxao51lwdxdn4S/1tDl8TZqirzmMhhOcuigo+b96HrMLgddgzuhB27Cge/7grMNPgLsdrPPMbAadGSvS7FYfC77UNLSQlGfM9h6EfByBdQs8fNX8gNikZ1VyEMYWuKMgugtaLiIzOEPmtOVYLiaO0CZ0eNZM9R1a3NEvjru0dOgVLgdccg/iqLwVdq4OvtuRjDdIrts9rPPBRf6SExLFE2F7hLXT1bhGjuxu8sxYYCwzK4a8TscfMWdwD0sEV43iqKbn3E0PURDUXQRae2VD1qG1d/RdVK880vrocfP/kofOfxT6uW8pBQNXueVFvmcd61Dlq/3WeqNH/tu6pXNZS3HMZOFMYOcsfFD5bIxYicLjLYrPabCRPnnQm0bHpILMRGGVEze9w8xj3XP/8lceO9yVpJ0cP22ZBDW8yAmWIpS1qboHN5Gyxf2qJaSuNobIOmBx4Hh7NZtVSAswkcyzrNlSWVPVdUniIDBF2hvPwNRTb4WXT/KYj0Fh/YVvvNhGuXmh2KDBe9X/puIsdG1cdMBVjNHjc/oLwOkSdSjFgAKBWEKBmfKJhxmQso50QQ9hVJfAuDr2w2nH3YIiiNdz5im+vTdD+KSXPp1xrMLyi+IGs0mxHpG4J4ZEgGIXvHcV+RAKqYnpVVCoT2U/A2IhPI+ikfpGfDtKldgdV+MyGmhuk+UTjovOiO0Hn170Exj4ghMBvfg99tk/5d8Tj8jOgujOEezB43P5DJYjK7FAekTxYPZZzqOSHeEBSmmhgT4rb5AhAIYLErK65SDPcX9lF2rA/vJSyzYyk/xesHf42iE0bsCVQ4GtD1+SoKyxdoQ7ZZgFwdx5I71VZ9QMlg2QG5B3/le4dxQKr23MPOeRgTyMaEKKgUd4o37Cs+fUtY7TcTdN4du1QWq8iOpVkq+h5oaVCgGffpiFkmtFjkd8Xj8FNk2Bbcg9nj5gPdlIWqBpt46RG5B1hkFqsbx2p0euIa4Q7AgBqlsXAQgsEgHJhDU4XuM6SmqGN4/0EUlSAJHAWXi91/DbCcKVuO9KVjkBodBDDxAKGz3QXOVZ8DR0u7aqlXdLeneDylFNmkNwrkypoprPabETxvdmq3zLmNyXqlp7LNHzdfyHugDlXG3I86pbTTJx4/C1aAGbLfI/sd9Eza2mbK1kRQdLTr70Py/PPyQcK0ehgQrRlH01JouOV2cNy6pnazRAzD5NBT+tUrGqoZdXMmKHloGSEsjmb5kiOGYWaL3LM805/zqZzaPMtTKWSZsJgwTI0gl4aePaKnpckFUyUsX4cgHwz0gr9KMZkJx40bN/IslKGhodpYKAzD1JDc08ZFoeeUBgofNrRGoYViZPZcHoZhag7N7oRj4WzGbHe3epeKjYbJ/IihMAyzIJgfMRSGYRY8LCgMw9gGCwrDMLbBgsIwjG2woDAMYxssKAzD2AYLCsMwtsGCwjCMbbCgMAxjGywoDMPYBgsKwzC2wYLCMIxt1FxQMlffgfTYm2Jh9dS5P0B6dBDS4zHQJj9SRzAMs1CoiaBomTRkxt+G5OkDkDxzEFIXXoT0B39EIYlCavRVFJbfQ+LELyAx8g+g3ayHxSkZhjGDvYKSugHJd34NiWN/C8lzhyEzcVbtKI6WuAaJ+M9h6q2/hqljTwnBYRimfrFNUMiFSZz8FWSuX1AtFZJJCZeI3j3LMEx9YougkJgkT+1Hi+OqarFO6vxhVWMYpt6wRVCSZyKgpRNqqzooYJv+cEhtMQxTT1T9CsjM5eOQfPeQ2irNM4eOwatvnVNbkh/+u8/D3auKLzva0NoJTa5etVU5U8/+LWTO5S9F72hqgaYtT4Dzvk+ploXOOMT7hiF+oh1cuzaCa14t/8nQKoUj0A3e+bI6mElq9gpIms1JXTyitkrz3ocTWTH50mcfhEcevg8eWr+qpJgQmZuXVM0aupg0dN4NDXetB2hqBS05BYkXf44702LfYmDsIK1TfDq3GiBThhiEAz6x7ITH4RBrHTuojsUXMKwoaAdhWjuZrrUN7D71XFKVoGQuj5iKm5w4K/+cW5oaoefRT4DvKx54YutnRFtZ8o2ninGu3Qgt2/3Q8vgPoNX3IzRRHACTE5C+eFodwTAKWlnPgcIRpLfGx+QC6YRa3yZ8IJxrKyBv+dJFTnWCcuWkqpXnyrVJ8XnnymXi0yyZGxdVzRoNK+9VNdSS9lXgaLlFbkzw7zVjJIyWQlAKhtsPoaiGv2V6iUI05AdvkQhALOARVownmO9am8IbkufGUuO1t2YVy4KSuXoKMhNn1FZ5Ekk5Fdzc6BSfZkldeEHVrOFoblU1RUOj+NASap1lhkFigaBcIEut+5u/GJYb3N4AhELVrQdcHLOLsdcPlgVFS06oWnme/u1ROPGutAgujn0Mv3zuqCijWJ+R5DVVMUfm0gVIvLBPFCJ1/LXsNhVt6oZoT594HVJvzBxIro5xGIur6iwyFh9XNcYsIyPKZemexwPc6IaZZC5csSoExYQgIINHz8OHl+Sx167fhNePnRfl6sczWwlaegpVIqW2Zka7fhXS8ddEITKjp7Pboi2dlO0fnIH0mWOiXjXxIYhs2g/9mw4D6cdY5DD0t++FvnZqo8+90N97Ki8oOtZH+7D0FRn8kSG5b9NQkUDqKXWtIXGtLOIe1LVwP332qfthZqYbhUSAwmJmCMYCFFD1wDa5YLAKsBYEb2NyTWEKvJL1E/ZJ94iKjxoK9mcpaBfX0oPDoj9eI69DAaK/vA7dj/j0BfB7xSCA90DnrWUQ2HoMJXldVcrz2U/dAys7l4p6W2szrFvdKUpbS5NoKwv5sClz15lLyCoga0QIBYoHuNaAqweLS677KkSG2hVd2C76HMwXGmIsflqd7zTECxUhQm24D/tnZ4Dp3JuG5bHUTtft6YCuOInPMM/umMDt3Sotk1gQBxwtNi6aq2ZEBHRpjJMIYMWdbwHp+wsx9vMEUT28ajlRsTcmxKmoKKCwOTzovtE+vBb18ZL/FqbvFRSWWCxmId5TAZYFxdHSrmrl+dY3H4L193aJ+j0rl8H3vrVJlNV3lJ4y1nE0OMHRdKvamu+cgiN7ADYP7oQdg1ugZx+Wwe2we3ADiG+PAz8SEQcC9DwoBWGaaIxD/KButWA9km/B6O6M67E14lNYLMr66dpF19our7tvO+y4vB024/5posRMxx2AgZBX1lFU6Bfeg2ZAsTFLuAMhkYsx4Ffy4JXbVELTIqxhCAYB/BTopWPwR1K/VHmoX7cIEEdDIQhhoQCuvGQM9xWaKWHwKdPF7Y+Ka1GfUEgGfv243y6hLId1C6VpiarUkEa0bNBkqxdcOJA3FyaPuTZCzy5pqcTRIpGQFUGfBXEWtCpIALp2bRCCM3bCKCi62KD1oa4xRklrVHFtgJ7d+avg03Gb9ykxY2bETbMu0VA2IBsjNwbdi3LCYha3f8DSTI4XBaEwQBzwKzUqcM+MgeWBaRfDfgP+POuoVlgWlIa221WtdjTcslLV6gFdJKZDLo6A3BVZg671hSJDrpFMQOtCl0mIBrk4Yg+ixAZcaN0IQclZM11osRQVDrwuC0oFuL3KIvCrgYyDViWgWf91d8PWfFUwCbkrqmqku1sKA7ouRudFDyy7t+quUQHoApnLfa8O6y5P2wpwrnhYbdWGxnu2qFqd42qXAzt+OSco6PbItpzISItExkBcj5HgUJar2JXtW0w8soI1jZw1w5hHTBMLYVGDM0Z5KgXBU9OgAFjRk4pA4VPq0l3yYt00iVVzrLs8iLPzk/jfGrokzoI8koUEBW5psGfjKEo8VHxFFxzdgpGfFHTVxUN3l1g0agW5QdGo7iqEIWxNUWYBtFaEgYJWyGyYIWWoSlAcrV3g7KiR7DmqurX5hW6Z6JaKQLdCVPBVuTfZgGtWcMiCUeKRdXcIXUh0YSlGuX2MKdwB0MMW4XmrKLr1EUPXRzQUQRed2lL1qG2843OqZi/OzodUrV4oPXizcZKCmIZuhZCrI48xxmGUYJAFE9HjJ8b+OcvEGIfJwxiDYarGPdc//yVx473JWknRw/bZkMPqzYCmZTPGUv7NVz2w90ffENPFM+FobIPm7n8PjXc/qlrM41zthrYnf2qqtHh/qHrZxTgc6Z2ejEY5KHK6uAM279KnexW6QESG4QiNfH06WSGtFRSbPTJYm5sulmS3jVPSWeSUMjMzlNch8kSKEQuAPkNbMj5RMOMyF1DOiSDsK5L4lptSrjW2+BWNdz5im+vTdP/j4GieOUdl/kHiMAz97ftxIA+hVaEyaNWg7tq1ZfqUcsH0sT7zk0UJjMw/MVovip4t0KPa4r2UkXsYjqA1c6QXr9t+GOI9G4pck5mOTBaT2aU4IH2yeCjjVH9o0Bualj9iTIjb5gtAIIBlNpI9imG4v7CP8mh8eC9hmR3r8EHY61c5LLWlYXJyEozFEo4GaFz9VRSWL9CGbLMAxWQcS+5UW/UGWiCDlIdCMZFhFBXKXpV5I5SfsmNanogkZ3UYA646Obem0HrRoXP3qH5jQkxIVPC6KDY79hVYRExRuikLVQ02eukRuQ1UZBarG8dqFLRi2WiUEKdGaSwchGAwCAfm0FSh+wypKeoY3n8QRSVIAkfBZXPZdJYw6kfVb2wrRJt4FxKnKzSvUJAoZuK84/PgcDarxjohTs/eUIr7Gui5vEUNej2eYhCEWUDPpOX8E+vkPVCHKmPuR51S2ukTj58FK8AM2e+R/Q7o9pClglv+aHWvTCj3xjbbBcWIdv19SJ5/Xj5ImFYPA6J4OJqWQsMtt4Pj1jW1myWaLYoKCsPMM2IB8TxPTL2ioZpRV7NXQM4EuS/Nru9AyyefhJaH/hKau5/Ifjbe91j9iwnD1AUxCGyTsaCSmbQ2MXvJHmSZNNfLg34MU2+QS0PPHtHT0uSCqRKWr0OQb1rwgr/Gr4ebPUFhGKbGkIDQ09L03hNVfPrrDOg5pRBKSm2paQxlcUCzOnI2p4veQyIbGWZOoNmdMC3PoT/b063epWKjYTJnQVmGYRYecxaUZRhmccGCwjCMbbCgMAxjGywoDMPYBgsKwzC2wYLCMIxtsKAwDGMbLCgMw9gGCwrDMLbBgsIwjG2woDAMYxssKAzD2EbNBSVz9R1Ij70JqYuvQOrcHyA9Ogjp8Rhokx+pIxiGWSjURFC0TBoy429D8vQBSJ45CKkLL0L6gz+ikEQhNfoqCsvvIXHiF5AY+QfQbhYuPMEwTL1iv6BoGiTj/wjJc4chM3FWNRZHS1xDYfknYblAckK1MgxTr9gmKOTCJEZ+ClNH/waF4qpqNYGWEZbLVOz/gqm3/lpsMwxTn9giKCQmyVP7KxOSEqTOH1Y1hmHqDVsEJXkmAlo6obaqgwK26Q+H1BbDMPVE9YKiaaYtkzfjo/DL547Cgedj8Pqx83BjsrgIpd5/Zcb4y8xokLlwHFJDz0HixZ9D6u2XQLt+Re2zl7E4LWauFtkyzTjE+w7LZUt5RXNmgVCVoNBsTuJ4v9oqzXsfTsDO//hb6P/NG7DslmbIZDQ4dvIDuKWt1CqBmpghqobJv38CpiI/gfTpP4F2bQySr/3fcHPf/wqTP/tLALxv24gchv5NKAxYxILnFTB2EIUoIhdCZ+wgBuGAXJc4oBbOY2aXqgQlc3nElHVy4qwcMi1NjdDz6CfA9xUPPLH1M6KtLPnvz64Y59qN0LLdDy2P/wBafT8CcDhQaSYgffG0OoJZaMQOyHWJ9be+20XeEqVMSaoTlCsnVa08V67JRdjvXLlMfJolc+OiqlmjYeW9qoZa0r4KHC23yI0JG22Cni2w+/J22IFlM69DuuCIBTz4O+QAT9BmhVqgWBaUzNVTkJk4o7bKk0jKqeDmRqf4NEvqwguqZg1Hc6uqKRoaxYeWUOss2wavx8MwhGVB0Uwmoj3926Nw4l1pEVwc+1gEZamMYn1GktdUxRyZSxcg8cI+UYjU8dey21S0qRuiPX3idUi9cUjUZ5OxigO3TE2hpTpV1S7E8p+qbgarrlSl15ktqhAUE4KADB49Dx9eksdeu35TzO5QufrxzFaClp5ClUiprZnRrl+FdPw1UYjM6OnstmhLJ2X7B2cgfeaYqFdNfAgim/aLwGzRmKzYvxf62vfiMfvFZ1+pY5naEJPr+3o8PgiLTR940I1xUBt9Ojzgox0GxDG4f5tcFBggLLep+AojvrEwnp/Og66Rfk68VkCsAVoEcT+548WnL0ALiULAJ++zaFDZ7HUKvm8Yz0l9qBR+T7uxHkNJXleV8nz2U/fAys6lot7W2gzrVneK0tbSJNrKQlPSKXPXmUvI8hgrphBiBmhYTgu7OsDVswYLukfxUygywzy7M4uM0C86jjuKiXiCOKq8aolOsTcmBp2lmSEcvGLgYl+3W57T68Wz4uAP4jmnDWAUJodHX2/YnTs+HMTzBGFkhO6zSLymwusYv69PdlLftbZYFhRHS7uqledb33wI1t8rIwz3rFwG3/vWJlFW37FctJXD0eAER9OtaqveQNHoPSVEo2vXdtg9uB169m3BogK4uJ/zT2YbHHzBbghFNYiGQhDCEtWi4BcjLYb7cqPSHcB90SgMyJ0oQHKbSiigD02yGILC9fCGaJ88ZwjrWtQvBnDYJ60ECR6vRr7bT8fgudTx4j5wf6GxIan0Ojr0fQH8+H3pWlH8gQ7VeLV06xZK0xJVqSGNaNmgmVaPjPWhZUIV1wbo2d0h2nJ0wOZ9GziQOwd4cSDSD3sONwT8apSRdSBrpogF0NKgCopNKP+kpEggT0vT2KIld7zbDwNZUdLB+xiQ4lBIpdcx4vYPwLRL1RDLgtLQdruq1Y6GW1aqWr0xDvGDMgDb9dia4sKBLhALymxDboKqGunulgMZXQ3zk8PoJh2Q8kPuRzG6u+VIJvdDfKJgEe6tuqtVALol3aqao/Lr5HDD1kIBqjENk5OTYCxmcbStAEdzbd0Rx61rVK1+6ULhKA4KCuetLAjCPhnwLCwePaArQOtHqVU3CkdxunGfqhbB3HWMoFDOgp4Y9aOhra0NjKUSmh74M/xv7VwSZ8fsqqt96EFaFo3FQC5IWrxsFX/GaP2IcY9WyHQzxBTmrjP7GPXDegwFcbR21W7QO6q6tTlGF5ISsz+CcvuYeqLbrwdJi5eAcDt06yNW5rEAXXSKY+46c0vVo7bxjs+pmr04Ox9StXokZ5nED56SlUIipzkXpa5xg1tZGvTs0MyYOB7bp++p9DpzS/VmQNPMz+d884vr4cdPPgrfefzTqqU8wvK54/NqyzzOu9ZB67f7TJXmr31X9aoNrsdU/CdyGCIRWc0hp5SZOqLIDJDXr2ZlwsESCWMxCBsCpeSWCMK+IsfnppQLqfQ6c4ktfkXLQ39Z1vVZ0toEncvbYPnSFtVSmua1fw7Nru+Aw1nq1QZlcDaBY1mnubLkNtWpRvRsgZ4eWY337oX+3sNwJHIKjvTuh/72wxDv2cAPE9YBbu9WOZhjQdjmC0AggEVPFhFTtrSXEuMoe5WyVmn6Fo+hjFfKwDU+VCimfWVVHE+vWcDj5bE+CHv9KiemgEqvM4fYE6hwNEDj6q9C451foA3ZZgGyTBxL7lRb9Y9r33YUFTnLMybEhERlXIjNjn31P4O1KMDBrCe3xdBCCAaDoGZxBSLRzC+ngWMia5Xex4LHoejE3F7w6zkuCjpezyWJoSjQ8XQsiU20TNZZpdeZKxwaouqCl19+GVasWAHdFkPR2sS7kDhdoa+HgkQxE3JzLFkmdUD2wUDOP6lTcOAKIXGXnorFA7JaYyLVPftgYPZYdHvIUsEtfzRaOiGtwuvYDWULX7p0CdasWQMdHR15s8O2C4oR7fr7kDz/vHyQMK0eBkTxcDQthYZbbhd5JvU7NcwwNiOe1wmixeHHQRuYdaEwy5wJSh5aRghLrZPhGKY+iUHA4wHKUaPnfKKzmS9fIeUEZfaSPcgyYTFhFjXk0njEqwpoVka804RKWL5uQCa8esE/j8VkJmZPUBiGQUhAgup9Jar49NcZeCEUDaGk1C+z5/IwDCOg2Z1wLPci7e5umTo/G8/d2MH8iKEwDLMgmB8xFIZhFjwsKAzD2AYLCsMwtsGCwjCMbbCgMAxjGywoDMPYBgsKwzC2wYLCMIxtsKAwDGMbLCgMw9gGCwrDMLbBgsIwjG3UXFAyV9+B9NibkLr4CqTO/QHSo4OQHo+BNvmROoJhmIVCTQRFy6QhM/42JE8fgOSZg5C68CKkP/gjCkkUUqOvorD8HhInfgGJkX8A7eaY6sUwTL1jv6BoGiTj/wjJc4chM3FWNRZHS1xDYfknYblAckK1MgxTr9gmKOTCJEZ+ClNH/waF4qpqNYGWEZbLVOz/gqm3/lpsMwxTn9giKCQmyVP7KxOSEqTOH1Y1hmHqDVsEJXkmAlo6obaqgwK26Q+H1BbDMPVE9YKiaaYtkzfjo/DL547Cgedj8Pqx83BjsrgIpd5/Zcb4y8xokLlwHFJDz0HixZ9D6u2XQLt+Re1baIxDvO8wRHqHIM4rsNcNtALgfFmT2C6qEhSazUkc71dbpXnvwwnY+R9/C/2/eQOW3dIMmYwGx05+ALe0lVolUBMzRNUw+fdPwFTkJ5A+/SfQro1B8rX/G27u+19h8md/CYD3vdAYO3gK4pHTwHNm1RCDcMAn30jvcICDinozvS9g88AP+8QaxT7PNrD71HNJVYKSuTxiyjo5cVb+mbc0NULPo58A31c88MTWz4i2suS/P7tinGs3Qst2P7Q8/gNo9f0I8C8ElWYC0hdPqyMYRkGr9olFx6XVkB3jau2c8IFwrq2A7JKiTJWCcuWkqpXnyrVJ8XnnymXi0yyZGxdVzRoNK+9VNdSS9lXgaLlFbkzw7zhjJIyWQlAKhtsPoSi68eTKixKFaMgP3iKLQMQCHmHFeIJqPYxK8IbkubHU8bpe07AuKJkEZD4+pzbKk0jKqeDmRqf4NEvmWnWWhKO5VdUUDY3iQ0vaE0BmFgaxQBAlBVFrCnvzBrgb3N4AhEK1WGt49hc6rzWWBYVmY0CbORbx9G+Pwol3pUVwcexjEZSlMor1mchcOqpq5shcugCJF/aJQqSOv5bdpqJN3RDt6fhrkHrjkKjXhnEYi4+r+gzgcaaPNWClD0H92D7LZ2REuSzd83iAG90wk8yFK9YwOjoKxmIWWvjcDINHz8OHl+Sx167fFLM7VK5+fFO0lUNLT6FKpNTWzGjXrwqxoEJkRk9nt0VbOinbPzgD6TPHRN0+xiHeux/62vdi2Q/9m1R90+HpMy/xU3BEPxaPMx57pNwsTXwIIpvo/Hvzz692lwSvZ+zXr18rYk2UFhrdKCQCFBYzQzAWoICqB7bJxYhVgLUgeBuT6xVT4JWsn7BPukdUfNRQsD9LQbu4lh4cFv3xGnkdChD95XXofsSnL4DfKwYBvAc6r51B4KtXr+bpR8OqVavAWEyTvK4q5fnsp+6BlZ1LRb2ttRnWre4Upa2lSbSVhXzYlLnrzCk40PtRRCJigHZAV88acFFx0b4Ci4COzQ7mDnkcli5xLAoNDvxIRByZT+Qw9huW4uTS++G1hFgMl7Y61PWoX5dL3Rf200Wt6LUWGW7vVmmZxII44Gghc9FcNSMioEtjnEQAK+58C0jfX4ixnyeI6uFVS5WKvTEhTkVFAYXN4dHXSXaLPl7y38L0vYLCEovFLMR7yrB8+fI8/bC8FGnqwguQHntLbZXn17+Pwit/OiuE5Hvf2qRazdHs2QmOxtxSh+VIn4tB4tmn1FZ5Gm5/AFq8P1Rb1TCOIrBfWhY9W2DHPhQHuUNCgoICINtw8LdLi6Jr13bYsRsHtoExEo3eU1jrgM2D22EziYygXD/D9cv0c+3bDj0kJDpCaEiI1kDP5S2Q7bJIiZGVYfjpd3tDMBDSB3Fx5IDH0UsBVjw2D5o10gO9eBZ/tCD4mt3vhZBmWCA9r59aPD3bD60MtDqEYTTtmmHwOaRV4/ZHIZp/sVy/YvdSITVZitRxSwXWjEUczctNi8lcMdan3BTXhuliQmTFhI5FC4MqeGxPgZgQXShIPT1UQ/fJ4I6U74cism/D9Osi2X7ivAX9XBths7gW5a+IlkUNCYhmGLxCYNC9IJGRg9s6bv+ApQHsDRnFhHBDwK9EpMA9MwaWB6ZdDPsN+MuKo11YFpSGtttVrXY03LJS1eYvYyfkwO96rIiY5IEicVAe69q1seSxLjwPQYlq0o3J9St5DYNo5TBcT52zkK71UmSsBngXHG6yCDQ5TSxGHw5alYBm3Q1yw9Z8VTAJuSuqagQ9B3lrI2B0XvTAsntrCasKXaDyPoc9WLdQ2lagBXGr2qoNjluLD4T5A83QyFoXDupaU/oaKChlfJZ4rwzIFpb+PSwkxRDTxEJY1OCMUZ5KQfDUNCgAVvSkIlD4lLp0l7xYN01i1RzreShI0wN/hv91yI0a4OyYhX+BqtAFpfyAzqeSYwkr18gnF4wtURZ7AKUE5AZFo7qrEIawNUWZBdBaUfGRGUKfNacqQXG0dtVu0DuqurVZQh/kOUtlZio5ljBzjfLn7Nq1BXr2lS6bC+MrTA53APSwRXjeKopufcTQ9RENRdBFp7ZUPWob7/icqtmLs/MhVZvP5KyG+EGanSlHB7gekwO33LH6vly8xMQ1Iqdl8DWPSu6NMYN7rn/+S+LGe5O1kqKH7bMhh9WbAU0zP5/zzS+uhx8/+Sh85/FPq5byCMvnjs+rLfM471oHrd/uM1Wav/Zd1as6XLvUDAtN+fYViUkY8lC6eh7MHitzVgoQ7VRZA5sNsznZoGp2v5FTEBFTzdPJ3dtwiXyTcYhzQFbkdYg8kWLEAkCpIETJ+ETBjMtcQDkngrCvSOJbGHxls+Hswxa/ouWhvyzr+ixpbYLO5W2wfGmLailN89o/h2bXd8DhLPVqgzI4m8CxrNNcWXKb6lQlro3Qs0sO/rE9+0UGaqRvCOJYIpQNq5LKBIZjRVatOPaUPJYyX1UOigvdEGVcSLLTydRvL/T3UmKcTEzrpzyTng2G3BMDYmqYrofCQf1EQh1NEw+pvvshwoFZRCaLyexSHJA+WTyUcarnhHhDUJhqYkyI2+YLQCCAxa6suEox3F/YR9mxPryXsMyOpfwUrx/8NYpOGLEnUOFogMbVX4XGO79AG7LNAmSZOJbcqbbqh67d22EH5YLQoI7jgN2DFgEWkUviQqvEMNj1Y2UWLR2LokLHkqXgQstkkBLQ5LFGjIlpY0JMVLatSqYrBfXbsUu6T2MiOxav1zss+o7R9XDfYqebslDVYBMvPSL3AIvMYnXjWI1OT1wj3AEYUKM0Fg5CMBiEA3NoqtB9htQUdQzvP4iiEiSBo+BysfuvAZYzZUuhTbwLidMVmlcoSBQzITfHkmUynzC4OMXzQ4wYgqkzHpsjmzdSQR9BRfe2OMl7oA5VxtyPOqW00ycePwtWgBmy3yP7HfRM2tpmytouKET60jFIjQ6aWhrD2e4C56rPgaOlXbUwDGM7ekq/ekVDNbo364JSFC0jnlCudTIcwzCF5J7lmf6cT+XU5FmeikG3hsWEYWoFuTT07BE9LU0umCph+ToE+WCgF/xVislMzJ6gMAxTY0hAgup9Kqr49NcZqCeX5YE1Y/ZcHoZhag7N7oRj4WzGbHe3epeKjYbJ/IihMAyzIJgfMRSGYRY8LCgMw9gGCwrDMLbBgsIwjG2woDAMYxssKAzD2AYLCsMwtsGCwjCMbbCgMAxjGywoDMPYBgsKwzC2wYLCMIxt1FxQMlffgfTYm5C6+Aqkzv0B0qODkB6PgTb5kTqCYZiFQk0ERcukITP+NiRPH4DkmYOQuvAipD/4IwpJFFKjr6Kw/B4SJ34BiZF/AO1m9i2nDMPUOfYLiqZBMv6PkDx3GDITZ1VjcbTENRSWfxKWi5n3zzIMM7+xV1BSNyB5agCF4qpqMIGWEZbL1PGfiU+GYeoXWwSF4iGJt/8TTEX/D8hcv6BaKySTEpYKuUMMw9QntghK8kwEtHRCbVUHBWzTHw6pLYZh6omGyclJMJaK0TTTLs6b8VH45XNH4cDzMXj92Hm4MVlchFLvvzJj/GVmNMhcOA6poecg8eLPIfX2S6Bdv6L2MczcI1Yp1BfkqmOM+tFA74M0lkrJXJm+7n8xnjl0DPp/84YQkpeGzwhhGb9aSsA0SL/3kqpbY+rZp2Aq8hNIDj0L6eOvQvLlZ2Dq6b+C9Nlj6giGKSQG4YBPvjXe4RBrHTvU2+N9AZsHfpjWTqZrbQO7Tz3bGPWjKpcnfeltSL57SG2V5r8OnYFX3zoHLU2NsPdH38iWu1ctV0dMJ3PzkrB+rJI5NwLOtRuh7cmfitL6b/830FIJSPz2P6NYnVRHMYyCVtZzoHAEpdWQHeNqfZvwgXCurYC85UsXOVUJSuaKuYF55Zq0RO5cuUx8miVz46KqWaNh5b2qBuBoXwWOllvkxgTnvjBGwmgpBKVguP0QiqIbT668KFGIhvzgLbIIRCzgEVaMJ6jWrKgEb0ieG0uN196aVawLSiYBmY/PqY3yJJIZ8dnc6BSfZslcO61q1nA0t6qaoqFRfGhJewLIzMIgFgiipCBq3V9v3gB3g9sbgFCouvWAi2N2Mfb6wbKgZCZQTLS02qoNmWtnVM1mNClwNSE+DmPmwkp4HB6r6szcMTKiXJbueTzAjW6YSebCFbMuKCbdkZ3/8bfwyp/kjM2Jd8fENpUTZ2ceStrNj/BCKbU1M+lzMZj8+38vCpF46ZfZbSraDTkblfx/98NU+H8XdVuIn4LIpv3Q174X+vCzfxN+Yr2/75Q6wIA4Vu2nY0Wfw3AkMq4OQCJDch+1FxGneC/tw1Ls/EzFdKOQCFBYzAzBWIACqh7YJhcMVgHWguBtTK4pTIFXsn7CPukeUfFRQ8H+LAXt4lp6cFj0x2vkdShA9JfXofsRn74Afq8YBPAe6Ly1DAJbd3mS11WlPJ/91D2wsnOpqLe1NsO61Z2itLU0ibaykA+bMnedOSNOg/8wxNHa6HKtAVePLF24a+yEPCRL9lgwHNshROYIikQkoo7r2QibXWTpYPueAtHAc5D4jMU7YPPuNaqRqQa3d6u0TGJBHHC02LhorpoREdClMU4igBV3vgWk7y/E2M8TRPXwquVExd6YEKeiooDC5vDoaxm7RR8v+W9h+l5BYYnFYhbiPRVgXVBUPGImvvXNh2D9vTS8AO5ZuQy+961Noqy+o/QMTx4NzaoyP4nvGRZuS9eu7bBjcAv07JNlx+WdsGOXccCTZSKPde0zHrsddg9uEAIU70WxEcfSMVvARZXIsMFKGUfh0c+h9jPV4w7AQEgtI46iQr/wHjQDio1Zwh0IieU4B/xKHrxym0poWoQ1DMEggJ8CvXQM/kjqlyoP9esWAeJoKAQhLBTAlZeM4b5CMyUMPmW6uP1RcS3qEwrJwK8f99sllOWwLCiOW1apWu1wNC8HR2PluTGzRy5e0uVCS6OALsOIH+sblmLRgyJCVokRF1okPVQ5BXHdSoE1KDYkSCQiQ0JExvqUCyTOQccwduGmWZdoKBuQjZEbg+5FOWExi9s/YGkmx4uCUBggDviVGhW4Z8bA8sC0i2G/AX+edVQrLAtKQ9vtqlY7Gm5ZqWrzlQ5wPSbFgeIaeXGQPMYhflDucz1W3E3pWi/PQ4HaLD0b0PXBzzhaKX3k/tA+XWgY23F7lUXgVwMZB61KQLP+6+6GrfmqYBJyV1TVSHe3FAZ0XYzOix5Ydm/VXaMC0AUqMvNtO9YtlLYVaEHcqrZqg+PW+T9wunZvkYNeWBIUmN0PERz8pULO8V4ZkC0s/UIsCumAzfuUO7RHukPs6tQeMU0shEUNzhjlqRQET02DAmBFTyoChU+pS3fJi3XTJFbNsR5DQRqWr1W12uBc/qCqzWdw0A/uhB1oNUgXB60RHPz9KCzFZmiMgduipVAt6PhsW0eeG8XUFnKDolHdVQhD2JqizAJorQgDBa2Q2TBDylCVoDTe9UVwdnjUls048NacBYlp85iuni2wA4Vl9yBaEEpYjtCMjtibo2uXHowtXjYXxFeEK4Un6UKxMcZTmFnCHQA9bBGet4qiWx8xdH1EQxF00aktVQkK0XjH51TNXpydD6lanYEWRQ+JitjQg7Y5yyJ+sILckchhOZXs2iAFhwKx8WF0qUrFapha4p7rn/+SuPHeZK2k6GH7bMhh1YICTTM/n/PNL66HHz/5KHzn8U+rlvI4WrvAecfn1ZZ5nHetg9Zv95kqzV/7rupVDSgYJQOx+bh2yVgITQNn803yQFfJGJClaeZeEh+Ko2wUffVzjKFLVcydYqxBeR0iT6QYsQDoM7Ql4xMFMy5zAeWcCMK+IolvuSnlWlO9oCDOFQ+rWnGWtDZB5/I2WL60RbWUhqaJmx54HBxOC/knziZwLOs0V5bcpjpVR3zPfpEdG+kbgnjkFMTxM6K7OvosDSGmhsmdQeHopSxZyo6laeIhEcylmEvEEJjN5qQUnKNnlzwHuz52IpPFZHYpDkifLB7KONUfGvSGpuWPGBPitvkCEAhgmY1kj2IY7i/sozwaH95LWGbHOnwQ9vpVDkttsUVQKJbS8s9+AI13fgG3HLLRAmSZNHt2ivyTekHkn6BlQQluERSBCH6KTFiKqRRM74qEtl0qi1Zkx+LxvcMoLGjpoKu0WU+E012dIlPEXbs3SHeKXR/b6KYsVDXYxEuPyD3AIrNY3ThWo6AVy0ajhDg1SmPhIASDQTgwh6YK3WdITVHH8P6DKCpBEjgKLpvLpqsah0bPaBt4+eWXYcWKFdBt0V/UJt6FxOkKzStHg4iZkJtjyTKZBxjzR4oluU0Dj89aGHi8cIeYOSfvgTpUGXM/6pTSTp94/CxYAWbIfo/sd0C3hywV3PJHq3tlAmUEX7p0CdasWQMdHR15L2azXVCI9KVjkBodNLU0hrPdBc5VnwNHS7tqYRjGdmIB8TxPTL2ioRrdKycotrg8hTg7PwUt7r+A5rV/LtyYvOlftEYoIc5521poXP1VaLz3GywmDFNTYhDYJmNBJTNpbaImFgrDMLMNuTRBGPFuBb/fm0uzH6GHDNUTyOCFkBbC/1bHrFsoDMPMBfTsET0tTe89UcWnv86AnlOqXkxmgi0UhllA0OxOOBbOZsx2d6t3qdjo58x6UJZhmIULuzwMw8wKLCgMw9gGCwrDMLbBgsIwjG2woDAMYxssKAzD2AYLCsMwtsGCwjCMbbCgMAxjGywoDMPYBgsKwzC2wYLCMIxtsKAwDGMbjhs3buQ9bTw0NFT108ZaJg3alRFIXz4BmYmzqnU69Oa2pgf+TL7VjWGYuqDwaWMjDfTosbFUjaZBMv6PkDx3uKyYEFriGiRO/BOkzv3B1PtnGYaZfxj1w16XJ3UDkqcGUCiuqgYTaBlIj0dh6vjPxCfDMPWLbYKiTX4EiZO/gsz1C6qlQjIpaamgwDAMU5/YIiiJkZ+i6/KLyiyTEkwd/QmkPxxSWwzD1BPVC4qmmRaSN+Oj8MvnjsKB52Pw+rHzcGMyofbkk3r/lRnjLzOjQebCcUgNPQeJF38OqbdfAu36FbVvAZFdgZCXJq03xCqFxoXFFgBVC0rmirlVu585dAz6f/OGEJKXhs8IYRm/Oqn2FqJB+r2XVN0aU88+BVORn0By6FlIH38Vki8/A1NP/xWkzx5TRywUxuWaypHLLChVE4NwwCffGu9wiLWOHert8b6AzQM/TGsn07W2gd2nnkuqEpT0pbch+e4htVWa/zp0Bl596xy0NDXC3h99I1vuXlV6DePMzUvC+rFK5twIONduhLYnfypK67/930BLJSDx2/+MYnVSHcUwClpZz4HCEZRWQ3aMUx1L+EA411ZA3vKli5yqBCVzxdzAvHJNWiJ3rlwmPs2SuXFR1azRsPJeVQNwtK8CR8stcmOCf8sZI2G0FOTKeuD2QyiKbjy58qJEIRryg7dIWlYs4BFWjCeo1qyoBG9InhtLNesMzzesC0omAZmPz6mN8iSScuamudEpPs2SuXZa1azhaDYsgUo0NIoPLVk8dsMsTmKBIEoKotb99eYNcDe4vQEIhapbD7g4Zhdjrx8sC0pmAsVES6ut2pC5dkbVbGaOp6bH4uPm4x10LBbbqOTahNXrl+1D51RVk1T0b1YhIyPKZemexwPc6IaZZC5cMcsLfaUuvgLpD/6otkqz8z/+VtXy+Q//9rOw/r4ZUu7RnGz55PeylsVMpM/FIPHsU2qrPA23PwAt3h+qrSqID0Gk9zT+sXfA5sEtAL37IRKRg8m1byf09IgqHncKjzsMceNAcq2Bzbs2wOae/PRleewwHps/KLtceOzgRnCpbQFev3/TMF5/DfRc3pLbV3BfXX2HIbLnlGFQduD9bc/dn5EKr5+7zgb8/ngd9f2Jrp4N0LNvI9D/02MRmo0quIddW6Bnd8H316nk36wKyHXxBHHwKQtlJlGJBXyw7QC6OYZB7lZL83VvHYAQ+TCxAPi2HYAR6AZ/NAToU4FPLjCM3o4Goe78/dklQgv6ddO1gsb4jRv7RyFUak1R0V9fy1ji9vphADuEfdvgwEg3bB0IVeVm1Wahr+R1VSnPZz91D6zsXCrqba3NsG51pyhtLU2irSzkw6bMXWcuEb+e+Ec/1qfExNUhBlAWMejlwOjCAeHqoYIDQkz5Uh91nGBcTAOLwZw9do0ckPFhiGwyPz1svK9+FBMwnEvMDuG1jxgHq6Dy6+vXofPRd5F95IAfiwzjd8c+KCb9KCb6ObuEKuE97Cn8/oqK/s2qw+3dKkUkFgSPJ5A3GKthhAQHz0WCJcQERcc4jvX9hRj7eVBMwKuWExV7YygMnuIzQ2EfODz6WsYoPKIf9grT9woKSywWsxDvqQDrFsqFFyA99pbaKs+vfx+FV/50VgjJ9761SbWao9mzExyN5p4xmisLRVoIBP1Kb4fNeT/h+CvbjgMDa9IiMPyyZvsarQscZH00+NESKHkeo+VT2kLJ3RfuQysldz4UjU1KTHq2wO59a2SzwOr1EbRgdqAFkxXTvHtAYdi1HXYYrJF4714pDNPuodJ/s+qJ0TSuT0RSBG5vSPyql/shz1o2FGAtNBlo1kgP9OJZ/PirnmcVZPd7IaTlWyi5fmqB82y/GAQ8HqBLTr9mGHwOn4gFuf1RiOZfLNev2L1USE0sFEdTZTM2VnA0OMHhLAiszmO60HzPFxOyDtB1oAoOmryBQbg2oulOFcojES0IugG7CwczQb/QslZpTMO1zygmBArfLjWAybqQNYX167t2GcSEIMtCPw+KTaFr43pM3UPktPw3UlT+b1Y9JCCaYfAKgXGgYKDIyMFtHbd/wNIA9oaMYkK4IeBXIkLWhqwJjIHlgWkXw34D/rLiaBeWBaXh1gdUrXaIazgcamu+gwOx8I+ffu0PysGXHTwFdK2XfUqKhHAnaPCcEm5F5eSEIA9Xuxz88RkS4kxfv9h10PVTgtKF3z9PbAj9HvKw4d/MKm6yCDQ5TSxGHw5alYBm3Q1yw9Z8VTAJuSuqagQ9B3lrI2B0XvTAsntrCasKXSDrLyQxj3ULpW2FeJ9JLXHcWvwPan6SGzzFIPO+r3166d9TZFBQMBJdEnEMflIsgYKT0+MdNWKur6+o6N/MRsQ0sRAWNThjlKci3YnKQQGwoicVgcKn1KW75MW6aRKr5lgPyiINy9eqWm1wLn9Q1eqfXGCxRNHFKHIYBzEFI8dFn83orvQMbocdgzthx65CC6gGzPX1DZj+N6sR5AZFo7qrEIawNUWZBdBaUfGRKt6LZgtVCYqz85P43xq6JHUUP5kJiq/00OAsUeQ06DgcodkYhAKfOwapnQZOeevHPub6+vmY+zerMe4A6GGL8LxVFN36iKHrIxqKoItObalKUOjVjS3uJ9SWvTi7/rmq1TO5gRg/KAdqeeT0ayn3aexEbU39ub8+Uem/2ezhnuuf/5K48d5kraToYftsyGFVgiIwMdvzzS+uhx8/+Sh85/FPq5bykFA57/i82jKP86510PrtPlOl+WvfVb1qi2vXBhl4jAyXyJ0YlzkfeegD2wAlhdk4q1Geub2+tX8z61Beh550No1YACgVhCgZnyiYcZkLKOdEEPbhd5HVHGHwTW+sCdULCuJc8bCqFWdJaxN0Lm+D5UtbVEtpKOek6YHHweFsVi0V4GwCx7JOc2XJbapTjRHTnNKdoSAjBTiPiNcNDIkErf72/RDJBhkpNiBrIkmsbyh7XF/vOO6rtYk/19dXVPRvZgcyWUw86EevFPDJ4vHQ6wtUTog3NC071ZgQt80XgEAAi11ZcZViuL+wD78H3n8ArZIAfi8P5ad4/eCf70FZnca7vggt/+wH0HjnF3DLekyFLBORyNZc+rUG9QglZ+3YpWeb6i9EGsZBgpYABT71nBCEjs0Opj34Cy2OU+3r5TG1ZK6vr1PJv1m1dFMWqhps4qVH5B5gkVmsMtV9WuIa4Q7AgBqlsXAQgsEgHJhDU0Wm5Ov3E4YgikqQBI6Cy8XuvwZYzpQthTbxLiROV2heORrA2fmQcHMsWSb1BJrq2byPwhT9PHS3o3g8o/bM9fUNmP43q568B+pQZcz9qFNKO33i8bNgBZgh+z2y30HPpK1tpqztgkKkLx2D1OigqaUxnO0ucK76HDha2lULwzC2o6f0m3wAshy1eTiwDM7OT0GL+y+gee2fy0W8jNO/aI1QQpzztrXQuPqr0HjvN1hMGKamxCCwTcaCSmbS2kRNLBSGYWYbcmmCMOLdCn6/N5dmPxIWsR0ZKy54ENEis26hMAwzF9CzR0H5km29+PTXGagnl+WBNYMtFIZZQNDsTjgWzmbMdnerd6nY6OfMelCWYZiFC7s8DMPMCiwoDMPYBgsKwzC2wYLCMIxtsKAwDGMbLCgMw9gGCwrDMLbRMDk5CcbCMAxTCUb9aKCkFGNhGIapBKN+sMvDMIxtsKAwDGMbLCgMw9gGCwrDMLZRk6eNtUwatCsjkL58AjITZ1XrdOjNbU0P/Jl8qxvDMHXB7D5tjPqUjP8jJM8dLismhJa4BokT/wSpc38w9f5ZhmHmN/YKSuoGJE8NoFBcVQ0m0DKQHo/C1PGfiU+GYeoX2wRFm/wIEid/BZnrF1RLhWRS0lJBgWEYpj6xRVASIz9F1+UXlVkmJZg6+hNIfzikthiGqSeqFxRNMy0kb8ZH4ZfPHYUDz8fg9WPn4cZkQu3JJ/X+KzPGX2ZGg8yF45Aaeg4SL/4cUm+/BNr1K2rfPCC7Gt5QbhErZlEhVik0Liy2AKhaUDJXClfVLs4zh45B/2/eEELy0vAZISzjV0s9O6RB+r2XVN0aU88+BVORn0By6FlIH38Vki8/A1NP/xWkzx5TR8w14xAX6/VeZkGZN8QgHPDJt8Y7HGKtY4d6e7wvYPPAD9PayXStbWD3qeeSqgSFpodTF4+ordK89+EEvPrWOVH/0mcfhEcevg8eWr8K7l5Veg3jzM1LqmaNzDn52u+Gzruh4a71AE2toCWnhLUCeN8MkwetrOdA4QhKqyE7xqmOJXwgnGsrIG/50kVOVYKSOhMx5e78Ea0S4v672qHn0U+A7yseeGLrZ0RbOTLX31c1azR9zgst2/3Q8vgPoO0v/jM4WpcATE5A+uQf1REMQ4TRUpAr64HbD6EouvHkyosShWjID94iaVmxgEdYMZ6gWrOiErwheW4s1awzPN+wLiiZBGQ+llbHTCSScuamudEpPs2SuXZa1azhaDYsgUo0NIoPLVk8dsMsTmKBIEoKotb99eYNcDe4vQEIhapbD7g4Zhdjrx8sC0pmAsVEq63rkLl2RtVsZlampsdhzFx4KZ+4hX6iz7jaqBDqq6pmoWstpLjPyIhyWbrn8QA3umEmmQtXzLKgaCYzW5/+7VE48a7887s49rEIxlIZxfqMJK+pijkyly5A4oV9ohCp469lt6loUzdEe/rE65B645CoV018CCKb9kP/psNAOjAWOQz97Xuhr53a6HMv9PeemnEAjvWpfuJcsn8kUkYkxCzRfnF+2UevH4YjxQSp8D6N16NPcT15aFHwehH9++h96Frl7rFO6EYhEaCwmBmCsQAFVD2wLaiOFgHWguBtLKCWBPUJ6yfsk+4RFR81FOzPUtAurqUHh0V/vEZehwJEf3kduh/x6Qvg94pBAO+BzlvLILB1QbnxgaqVx/ikUDKdgfErN0RJJGe2brTUzYpyW7TrVyEdf00UIjN6Orst2tJJ2f7BGUifsW+2R/xi4ygd68OBhuIBrjXg6sHi6pD7SWSovQSi3x7cT32wyCebxiHeW1ocSBjkYO6Q16J+LtqHQoMDv5g45N1n0evtL3u9OO7r0r9bD343JWplhagOcHu3SsskFsQBF1ALi1fPiAjo0hgnEcCKO98C0vcXYuznCaJ6eNVyomJvTIhTUVFAYXN49LWM3aKPl/y3MH2voLDEYjEL8Z4KsPxwYOrCC5Aee0ttlefXv4/CK386C+tWd8L3vrVJtZqj2bMTHI3m3iSXPheDxLNPqa3yNNz+ALR4f6i2qkAMtmFlgXTA5sHtsJkGto5hv2vfTujpkc35/dZAz+AWFCCxgYyjKKjB3bMFdu9bI5sFaCm0Syuja9d22LFbipZOTrwK7sWG67n2bcf7N1wve04832U8n2quR2JkZRh++t3eEAyE9EFcHDngcfRSgBWPzYNmjfRAL57FHy0Ivmb3eyGkGRYxz+unFjjP9kMrA60OYRhNu2YYfA5p1bj9UYjmXyzXr9i9VEhNHg50NC1TtdrhaHCCw1kQWJ3H0IDLExPCtRF6dslBGD9Y3Epx7TMObgLFYJca1AXxirG+YTG4wbUBegrEhOhCQZCiRXkuxd0RS9cT5y24Hn63zeJalE8jWuoWEhDNMHiFwKB7QSIjB7d13P4BSwPYGzKKCeGGgF+JSIF7ZgwsD0y7GPYb8JcVR7uwLCgNtz6garVDXAN9wPqA3ABVLaBLuT7FA6Al+rnalStiBEXioBQJ166NRfZLXI9JcRhDAav4enFjop3heuqchXStl9/NclB4PuEmi0CT08Ri9OGgVQlo1t0gN2zNVwWTkLuiqkbQc5C3NgJG50UPLLu3lrCq0AWy/kIS81i3UNpWiPeZ1BLHrcX/iOuOooO1voj3yoBsYenfswCEpAAxTSyERQ3OGOWpFARPTYMCYEVPKgKFT6lLd8mLddMkVs2xLChEw/K1qlYbnMsfVDUmnw4ZgJ1FcsHYEqWeAyglIDcoGtVdhTCErSnKLIDWioqPVPFeNFuoSlCcnZ/E/9bQJamj+ElZdMukqBtjBTlbM5t07doCPftKl82F8ZWFgjsAetgiPG8VRbc+Yuj6iIYi6KJTW6oSFHp1Y4v7CbVlL86uf65q9ULpQZ4NxrrQspA1i3SA6zE5cEsFeAl9X9dj+pSwVXKWULnrLRbcc/3zXxI33puslRQ9bJ8NOaxKUAQmZnu++cX18OMnH4XvPP5p1VIeEirnHZ9XW+Zx3rUOWr/dZ6o0f+27qpddjMORIq8ioGlcmadhmEmpgq6eB6VIiPMWiV9kr7cGNheZBaoU164N6nrDJfJNxiFe5wFZyusQeSLFiAWAUkGIkvGJghmXuYByTgRhX5HEtzD4ymbD2Uf1goI4VzysasVZ0toEncvbYPnSFtVSGso5aXrgcXA4m1VLBTibwLGs01xZcpvqZBdkfQxDP2WcorDEIyozVSW0kcswbUrZCsZpaMqU3YQC0ncK4n3yen0qB0VMDYujqkRMDdP1KPGNsmQpoY6miYdEUpv4vnUfmJXJYjK7FAekTxYPZZzqOSHeEBSmmhgT4rb5AhAIYLErK65SDPcX9lF2rA/vJSyzYyk/xesH/3wPyuo03vkIODvsudum+1FMmku/1mD+oieS4cCjX/PeYfXLTYN7egJaNXTtxvPt2yADoXEc3HtQVPao67nQMsH7yCbQ2YC4f7SuyFIZE9mxeD38fpSpO0bXs8Hymku6KQtV/fmKlx6Re4BFZrG6caxGpyeuEe4ADKhRGgsHIRgMwoE5NFXoPkNqijqG9x9EUQmSwFFwudj91wDbl9HQJt6FxOkKzStHAzg7HxJujiXLZC4pmi2qx1NmYzbGELupOkZjAmMuzWxcb5bJe6AOVcbczySltNMnHm/P72rVZL9H9jvombTzNFO2FI5l90LjPV82FVshnO0uaHb1QuPdj9afmJSEhGQ2xITQrzVLg1u/1mxdb5Zx0wDUi2qbGb2P2pwHTPsOKDBiAsi9tSD71l5sFxTC2fkpaHH/BTSv/XO5iJdx+hetEUqIc962FhpXfxUa7/0GOFra1U6GYewnBoFtMhZUMpPWJmoiKDqOJXei9fEdaPnkk9Dy0F9Cc/cT2c/G+x6zLe7CMAy5NPTsET0tTS6YKmH5OgT5YKAX/NX4OiaoqaDkoSwThmFqBQlIUL1PRRWf/joD9eSyPLBm1GRt48UFzerI2ZyunoUZV2DqB5rdCcfC2YzZ7m71LhUbDZNyQVkWFIZhKmJ2F0tnGGbRwoLCMIxtNIyOjoKxMAzDmOXq1at5+tGwatUqMBaGYRizLF++PE8/2OVhGMY2WFAYhrENFhSGYWyDBYVhGNtgQWEYxjZYUBiGsQ0WFIZhbIMFhWEY22BBYRjGNmouKJmr70B67E1IXXwFUuf+AOnRQUiPx0Cb/EgdwTDMQsH+1xfg6RLH+0FLXFUNM0AvqG7vhsY7Pmf6PbQMw8wds/f6gtQNSJ4aMC8mhJZBiyUKU8d/Jj4ZhqlfbBMUcmESJ38FmesXVEuFZFLCJSKBYRimPrFFUEhMkqf2V2aZlCB1/rCqMQxTb1QvKBQzOfEL0NIJ1VCaN+Oj8MvnjsKB52Pw+rHzcGNyeh8K2E699TeQmTirWqyiQebCcUgNPQeJF38OqbdfAu36FbWPYeYesUqhviDXAqFqQclc0ZetK88zh45B/2/eEELy0vAZISzjVyfV3kI0SL/3kqpbY+rZp2Aq8hNIDj0L6eOvQvLlZ2Dq6b+C9Nlj6giGKSQG4YBPvjXe4RBrHTvU2+N9AZsHfpjWTqZrbQO7Tz2XVCUoWiYNqYtH1FZp3vtwAl5965yof+mzD8IjD98HD61fBXevKr2GcebmJVWzRuacfO13Q+fd0HDXeoCmVtCSU8JaAbxvhskjFkARQeEISqshO8bV+jbhA+FcWwF5y5cucqoSlMzlEVNxkxNn5Wq4LU2N0PPoJ8D3FQ88sfUzoq0s+TPaFeNcuxFatvuh5fEfQKvvR4A/OQCTE5C+eFodwTBEGC0FubIeuP0Qimr4p6eXKERDfvAWyaKIBTzCivEE1ZoVleANyXNjqfHaW7OKdUHJJCB14QW1UZ4PL10Xn/fdeZv4NEtqdGbrpxzOu9EyUTjaV4GjTS40po2/Lz4ZhogFgigpCIpJNBooWPvXDW5vAEKhQA2W8DSsPbxAsCwomQl0YbTaug6Za2dUzWZmY2o6Pg7SLjMJHY+lYsr2oXOqqknoHiq67wXAyIhyWbrn8QA3umEmmQtXzHKmrEinv/Ci2irN0789CqcvXEYr5WO4dUkrdD+4QrR/adODsKprqaiXwtHYCs2eJ9XWzGQuXYDUm/9F1NPx16Bh1YPguO12sU2k3xnG/ySh4fb7wXn/Q9D4ma+rPVUQH4JI72kchB2weXALdPUdhsieU4ZB2QGufduhp0dtGomfwr7DEC8QhS7XBjzXRnCpbUHedTYA9OJ1xIqFkq6eDdCzb6NYuXAsgvt6C+5h1xbo2d2htgsQ93EY70NtE641sHkX3kdPiT4LCHJdPLT4r7JQZhKVWMAH2w6gm2MY5G61NF/31gEIkQ8TC4Bv2wEYgW7wR0OAPhX4xJqg5O1oEOrO359dIrSgXzddK2iM37ixfxRCpdYUFf3V8qMKt9cPA9gh7NsGB0a6YetAqCo3qyaZstqND1StPEa5SqYzMH7lhiiJ5MzWjZa6WVFui3b9qhASKkRm9HR2W7ShmIj2D85A+ox9sz3iVx0H41jffuhHMYGeNeDCIpclHYd47344Ms1SGIcjYhCjKODgpeP1PmPxYYhsGppmKejXofNFIthN9JEDfiwyDP3UB8WkH8VEP2eXUCW8hz2yzzRQqPo3STHpyt4HnhNF5oi6zkLH7d0qRSQWBI+HFhsXzVUzQoKD5yLBEmKComMcx/r+Qoz9PCgm4FXLiYq9MRQGT/GZobAPHB59LWMUHtEPe4XpewWFJRaLWYj3VIBlC4XiJ+mxt9RWeX79+yi88qezsG51J3zvW5tUqzmaPTvRUskpYDnS52KQePYptVWehtsfgBbvD9VWFYgBOawG/xroQSvFlTUtUDQ2KTHp2QK7962RzQIc5H0kPmiJ5JkiaC204wDHmmvfzpxlY7wOWjA70ILJrqOcdw8oDLu2ww6DNRLv3SuFYdo9GK9FVpTBGsmeE7/TZfxOqnmhEqNpXJ+IpAjc3pD4VS/3Q561bCjAWmgy0KyRHujFs/jxVz3PKsju90JIy7dQcv3UAufZfjEIeDxAl5x+zTD4HD4RC3L7oxDNv1iuX7F7qZCaWCiOWXiQz9HgBIezVW3Nf1z7jGJCoHuySw3gabEJdEN2F4oJQRaCrJWKqbh2GcSEIMtCPw+KTaFr43pM3UPktBAPnbE+dLeogkKTJyaEayO6O1Q5BfFFYaXgADUMXiEwDhQMFBk5uK3j9g9YGsDekFFMCDcE/EpEyNqQNYExsDww7WLYb8BfVhztwvosT9MSVakhjUtRVRxqY76TE4I8XO1y8McvFwhKAcKdocF7Srg1pSl2nQ7l2qB1guKRJzaEfg95oIV0UApWVnAK6FovRcZSsLgecZNFoMlpYjH6cNCqBDTrbpAbtuargknIXVFVI+g5yFsbAaPzogeW3VtLWFXoAll8f0BFWBYUZ4cHHM1yGrZWOFf9S1VboFAwFF2ivva90IefFMug4Oj0eEttIZdI3ENB6d+zSISkADFNLIRFDc4Y5alId6JyUACs6ElFoPApdekuebFumsSqOdYtFKRh+VpVqw3O5Q+q2gIkchhFRAZlKRi6Gd2lnsHtsGNwJ+zYVeB+1JhcMLZEWegBlBKQGxSN6q5CGMLWFGUWQGtFxUesvsbILqoSFGfnJ/G/NXRJ6ih+UhnjcIRmgxAKvO4Y3AKbxcDNuS6zSRdNKZOglSiLYeq4JO4A6GGL8LxVFN36iKHrIxqKoItObalKUBytXej61MiOclR1a/McOf1rjH0YGTsxG65G7trxg1LcmPK45/rnvyRuvDdZKyl62D4bclj1qG1c/RVVK803v7gefvzko/Cdxz+tWspDQlVJQpuO86510PrtPlOl+WvfVb3mEl1YDFBS2izNqrh2bZDB2shwiWuOT0u6W4hQXoeedDaNWAAoFYQoGZ8omHGZCyjnRBD24XeR1Rxh8E1vrAm2mAHOFQ+rWnGWtDZB5/I2WL60RbWUhnJOmh54HBzOZtVSAc4mcCzrNFeWVPZckb1QbELWRJJa3xDEI0Mikayvdxz3zZKLIaaG6VqUfLdXBIWPRGimSd5Lfzve26IIzMpkMfGgH71SwCeLx0OvL1A5Id7QtOxUY0LcNl8AAgEsdmXFVYrh/sI+/B54/wG0SgL4vTyUn+L1g79GzoQRWwSl8c5HbHN9mu5HMWku/VqDhQIlkmUH8x60EHqHcTCr9twzjTWHrrdjl56hS9mxNNNE94LWEwWL9TyaBUw3ZaGqP1/x0iNyD7DILFaZ6j4tcY1wB2BAjdJYOAjBYBAOzKGpIlPy9fsJQxBFJUgCR8HlYvdfA2x96336wyFIvf8K1qy9dkC4Oq7vqK3FQvl4yqxCuTCqChQgVtXFRN4Ddagy5n4mKaWdPvF4e35Xqyb7PbLfQc+krW2mrP3LaCDpS8cgNToIkJxQLaVxtrvAuepz4GhpVy0Mw9iOntJv8gHIcszeMhoKZ+enoMX9F9C89s+F1ZE3/etoEAlxztvWQuPqr0Ljvd9gMWGYmhKDwDYZCyqZSWsTjhs3buRZKENDQ1VbKEXRMqAlP655di3DLE7IpQnCiHcr+P3eXJr9SFjEdmSsuOBBRIsUWihGauLyMAwz2+SeNi4KPac0UPiwoTVmPYbCMMzcQLM74Vg4mzHb3a3epWKjn8OCwjCMbcx6UJZhmMUJCwrDMLbBgsIwjG2woDAMYxssKAzD2AYLCsMwtsGCwjCMbbCgMAxjGywoDMPYBgsKwzC2wYLCMIxtsKAwDGMbLCgMw9hGzQUlc/UdSI+9CamLr0Dq3B8gPToI6fEYaJMfqSMYhlko1ERQtEwaMuNvQ/L0AUieOQipCy9C+oM/opBEITX6KgrL7yFx4heQGPkH0G6WXUKcYZg6wl5BSd2A5Du/hsSxv4XkucOQmTirdhRHS1yDRPznMPXWX8PUsaeE4DAMU7/YJijkwiRO/goy1y+olgrJpIRLRO+eZRimPrFFUEhMkqf2o8VxVbVYJ3X+sKoxDFNvVC8omibiIVo6oRpK82Z8FH753FE48HwMXj92Hm5MTu9DAdupt/5mRndpZjTIXDgOqaHnIPHizyH19kugXb+i9jEMUwuqFpTMlcLVvovzzKFj0P+bN4SQvDR8RgjL+NVJtbcQDdLvvaTq1ph69imYivwEkkPPQvr4q5B8+RmYevqvIH32mDqCYRi7qUpQaDYndfGI2irNex9OwKtvnRP1L332QXjk4fvgofWr4O5Vpdcwzty8pGrWyJyTr/1u6LwbGu5aD9DUClpySlgrgPfNLERiEA7Ihc4DhhVFmdmjKkHJXB4xFTc5cVZODbc0NULPo58A31c88MTWz4i2suS/kL9inGs3Qst2P7Q8/gNo9f0IwOEAmJyA9MXT6gh7GYuPqxozV8QOyIXO9WUk7CJvzWOmJNYFJZOA1IUX1EZ5Prx0XXzed+dt4tMsqdGZrZ9yOO9Gy0ThaF8Fjja5aqE2/r74tIuxvv3Q174X+vewoCw0YgEP/g45wBO0WaEWKJYFJTOBLoxWW9chc+2MqtkMT00zTE2wLChackLVyvP0b4/CiXely3Nx7GMRjKUyivUZSV5TFXNkLl2AxAv7RCFSx1/LblPRpm6I9vSJ1yH1xiFRrx/G0aVSVZOQC8Z5yGVAN8ZuR4Zco0rOadWVqvQ6s0UVgmJCEJDBo+fR5ZHHXrt+U8zyULn68U3RVg4tPYUqkVJbM6Ndvwrp+GuiEJnR09lt0ZZOyvYPzkD6TPWzPWN9h6F/036I6K5ORG6Ltr5xiPfKen/fKbm/CPoxkYjeMAQRcY7DQPoxRudEd6qvndroE12r3lOlhSJ+Cvur4+g81BfPdSSyiN2xWAB8Hg94PHLt31jABx50YxzURp8OD/gKFgUWx+D+bUE1bMNym4qvMOIbC+P56TzoGunnxGsF5Arl0xH3kztefPoCKBAxCPjkfRYNKpu9TsH3DeM5qQ+Vwu9pN9ZjKDTYTbD3R9+Az3/6PlFft7pTbFNZf1+XaCuLpqF3IkWgHnE91iGthD2nhThMA8WDBvpYvANcPaoNEX2wA8VmSDzAtQb3Y3HJle6FyFB7IXg+IUTYt0vv04N9UGSOoHBlRWsRMkK/6DjuKCbiCeKo8qo1f8XemBh0lmaGcPCKgYt93W55Ti+tSI6DP4jnnDaAUZgcnqA4nhYczh4fDuJ5gjAyQvdZJF5T4XWM39cnO6nvWlssC4qjaZmq1Q5HgxMczla1Nf/o2r0Fdgxuh55dcqBDj9wWbbuxredBcIkdpyBeZDCPRU5LSyN7nBEUgT0Amwd34vm2QM8+LHje3YMbQEgxikq+QJBlMizO59pH96D6YF3vE++VVs/iBQdfsBtCUQ2ioRCEsES1KPjFSIvhvtyodAdwXzQKA3InCpDcphIK6EOTLIagcD28IdonzxnCuhb1iwEc9kkrQYLHq5Hv9tMxeC51vLgP3F9obEgqvY4OfV8AP35fulYUf6BDXrWrRli3UJqWqEoNaVwqp3rrljWwWYlN/GChRYEu0UFyQzrwmDWyqQAShs2FSuPamBUw4znH+oalWKCo9ZBVYgT7bBYWUHFhW0x4cSDSD3sONwT8apSRdSBrpogF0NKgCopNKP+kpEggT0vT2KIld7zbDwNZUdLB+xiQ4lBIpdcx4vYPwLRL1RDLgtLQdruq1Y6GW1aqWv3ShdaHtCgK3B50Q8g1ARdaJ9PNE4TcFVUtoEu5PpANuurihKd7rLg4da2XfRZ3rgy5CapqpLtbDmR0NcxPDqObdEDKD7kfxejuliOZ3A/xiYJFuLfqrlYB6JZ0q2qOyq+Tww1bCwWoxlh3edpWgHPFw2qrNjTes0XV6pgS1oHu7nShAJiIJuXjapd94penBWfjvTIgW1g4R6Z2hH0y4FlYPHpAV4DWj1KrbhSO4nTjPlUtgrnrGEGhnF09qcLlQZydn8T/1tAlmcfxk0rQrYaci0LxERrg6BJRrMVGcsHYEqWoNcRUQy5IWrxsFYMarR8x7tEKmW6GmMLcdeaWqgTF0doFzo4afQtHVbc2v9CDrrrbo38WDcaaQLdMdEvFQNcuPRhbvGwujK8wVdPt14OkxUtAuB269REr81iALjrFMXeduaXqUdu4+iuqVppvfnE9/PjJR+E7j39atZSHhKrZ86TaMo/zrnXQ+u0+U6X5a99VvWYDPTgr3R5pqZQOxkrk1HExspaOq0MJCn4qZZoe/GVqgxvcytKgZ4dmxsTx2D59T6XXmVsaJicnwVisMFMsZUlrE3Qub4PlS1tUS2kcjW3Q9MDj4HA2q5YKcDaBY1mnubKksueKTFEmM1UPzsYPHpaxlJLBWJ1xONI7NO18lIMip4vzBcm1S59OHi6RbzIO8UUdkK2SIjNAXr+alQkHSySMxSBsCJSSWyII+4ocn5tSLqTS68w2Rv1oaGtrA2OxQuOdj9jm+jTdj2LSXPq1BvOR7ExOHAczisCRPpmwlgfFNkhAImil4MfMwViyPoahv32/OGc8ojJoVUIbuTZ5U8oi+EtWEApHL2XJUnYsWUR4L5SNS+fhwGzFuL1b5WCOBWGbLwCBABY9WURM2dJeSoyj7FXKWqXpWzyGMl4pA9f4UKGY9pVVcTy9ZgGPl8f6IOz1q5yYAiq9zixj1A97AhWOBnR9vorC8gXakG0WIFfHseROtVVHGHJDxtBCOLJnWE4J52G0KMwEY/H4QcpDQYEgq6OXzkmC0CET14r0F+14DRKqMZEdi9YM9iNxG0NBK+9iMUXBwawnt8XQQggGg6BmcQUi0cwvp4FjImuV3seCx6HoxNxe8Os5Lgo6Xs8liaEo0PF0LIlNtEzWWaXXmSscGqLqgpdffhlWrFgB3VZD0Uj60jFIjQ4CmHiA0NnuAueqz4GjpV211DN63CMX0zAiUunJSujZArv3lRjcIn2eMl7XQM/lLSpoW/68RTG6X9lYC2MdHLhCSNylp2LxgKzWmEh1zz4YmD0W3R6yVHDLH42WTkir8Dp2Q9nCly5dgjVr1kBHR0eeZ1MTQdHRrr8PyfPPywcJ0+phQLRmHE1LoeGW28Fx65razRLNO8bhCLosR1AYXPt2Qk+JpLXigsIsCsTzOkG0OPw4aAOzLhRmKScoNZ2bJfel2fUdaPnkk9Dy0F9Cc/cT2c/G+x5bRGKCkCtEVoZrg0p0YxgjMQhsk8/rlMykrQNmL9mDLJNm+ca0RQO5HVQiaHWoYKpr10Z2PxYt5NJ4xKsKaFZGvNOESli+bkAmvHrBP5sP39jMAsoem3+I1wyImRn5FHDXru2lXR1mkUACElTvK1HFp7/OwAuhaAglpX6paQxl0UMvS9pzGSvtwjIxl/ZOszpyNqerh4OpCxGa3QnHci/S7u6WqfOz/dyNVeYsKMswzMJjzoKyDMMsLlhQGIaxDRYUhmFsgwWFYRjbYEFhGMY2WFAYhrENFhSGYWyDBYVhGNtgQWEYxjZYUBiGsQ0WFIZhbIMFhWEY26i5oGSuvgPpsTchdfEVSJ37A6RHByE9HgNt8iN1BMMwC4WaCIqWSUNm/G1Inj4AyTMHIXXhRUh/8EcUkiikRl9FYfk9JE78AhIj/wDazVILTzAMU2/YKyipG5B859eQOPa3kDx3GDITZ9WO4miJa5CI/xym3vprmDr2lBAchmHqF9sEhVyYxMlfQeb6BdVSIZmUcInQvFENDMPUG7YIColJ8tR+tDiuqhbrpM4fVjWGYeoNWwQleSYCWjqhtqqDArbpD4fUFsMw9UTVr4DMXD4OyXcPqa3SPHPoGLz61jm1Jfnhv/s83L2q+LKjDa2d0OTqVVuVM/Xs30LmXP7yjI6mFmja8gQ47/uUalm80MqCY7QKocuwAiGtNrjnNLa3w+Z9/Hb+WkMrAI5AN3jr5WWyipq9ApJmc1IXj6it0rz34URWTL702QfhkYfvg4fWryopJkTm5iVVs4YuJg2dd0PDXesBmlpBS05B4sWf48602LdoEW/jPwwRWv84b8lUekE2rYd8Obfq4KIiBuGAT76R3uEABxX1ZnpfILtWnz2EfWKNYp9nG9h96rmkKkHJXB4xFTc5cVb+ebY0NULPo58A31c88MTWz4i2suQbTxXjXLsRWrb7oeXxH0Cr70doojgAJicgffG0OoJhFLRqn1h0nN5Ib1jqU62dEz4QzrUVkF1SlKlSUK6cVLXyXLk2KT7vXLlMfJolc+OiqlmjYeW9qoZa0r4KHC23yI2JRZ77QmsrX94OO7Bs5rVOkTBaCnLVPnD7IRTV8LdML1GIhvzgLRIBiAU8worxBPNda1N4Q/LcWOp4Xa9pWBaUzNVTkJk4o7bKk0jKqeDmRqf4NEvqwguqZg1Hc6uqKRoaxYeWUOssL2p4zR+dWCCIkoKoNYW9eQPcDW5vAEKhWqw1PPsLndcay4KiJSdUrTxP//YonHhXWgQXxz6GXz53VJRRrM9I8pqqmCNz6QIkXtgnCpE6/lp2m4o2dUO0p0+8Dqk3Zg4kW0UsP6rqpsE+paElTVXVDGoJVMYcIyPKZemexwPc6IaZZC5csSoExYQgIINHz8OHl+Sx167fhNePnRfl6sczWwlaegpVIqW2Zka7fhXS8ddEITKjp7Pboi2dlO0fnIH0mWOibhvxUxDZtBf62vfK5Ufxs4+CnmIVQAO0miDtx31xCoL27hd9+rBN9O0dyoqRWMqU9rXT8fIz0ldCKMT1c+eie5D3MoTXKSDvHphuFBIBCouZIRgLUEDVA9vkYsQqwFoQvI3J9Yop8ErWT9gn3SMqPmoo2J+loF1cSw8Oi/54jbwOBYj+8jp0P+LTF8DvFYMA3gOdt5ZBYOsxlOR1VSnPZz91D6zsXCrqba3NsG51pyhtLU2irSzkw6bMXWdOwQEqBieOzi7XGnD1UOkQg/wICkYkoo5TCAsGjyUxoX3Z42lfZFiIgBATWmBdna9LxDpQgPZMPx+1H+ml66PYZK+PfXDPWHwYxSMnUjr6PTC0pPBWaZnEgjjgaCFz0Vw1IyKgS2OcRAAr7nwLSN9fiLGfJ4jq4VVLlYq9MSFORUUBhc3h0ddJdos+XvLfwvS9gsISi8UsxHsqwLKgOFraVa083/rmQ7D+Xumt37NyGXzvW5tEWX1H6SljHUeDExxNt6qt+QpZBnIxdNe+7bBjcAv07KOyHXYPbhCDOk6DXRxr5BQKwAYRGC08HlAESExocXX9fDsGd2YXWo8fRKEpoOuxDdCDx+zOXh/7XN4CQofwfEemiRCTxR2AgZBaohxFhX7hPWgGFBuzhDsQErkYA34lD165TSU0LcIahmAQwE+BXjoGfyT1S5WH+nWLAHE0FIIQFgrgykvGcF+hmRIGnzJd3P6ouBb1CYVk4NeP++0SynI0TE5OgrGYpmmJqtSQRrRs0GSbz4z1DUux6MFBrKyMLK6NsFmIAOV2iJY8aAH1vMAoWRf6rIsLBWJ3/vlcj62RlcjpAoHqANfuYouxk6UiaxxTKY+bZl2ioWxANkZuDLoX5YTFLG7/gKWZHC8KQmGAOOBXalTgnhkDywPTLob9Bvx51pGdGPWjgbLcjMUsDW23q1rtaLhlparNV9AFOSgHanawF9C1Xrky0wZ0brDn6FCuDVkc0mXJw9U+va0Ywp0hETvFbk0luL3KIvCrgYyDViWgWf91d8PWfFUwCbkrqmqku1sKA7ouRudFDyy7t+quUQHoApnLfa8co35Yd3naVoBzxcNqqzY03rNF1eY/8V4Kmk4v/XtmyTKYFpQ9DBF0tfIzYRkziGliISxqcMYoT6UgeGoaFAArelIRKHxKXbpLXqybJrFqjvWgLOLs/CT+t4YuibMgj2QekwvGlijT3BEbiRwWM0oUlKX72EwxlEGKv+yEHbsK3DDGNOQGRaO6qxCGsDVFmQXQWhEGClohtTJDTFKVoDhau8DZUSPZc1R1a7NO165cMLRY2VwYX7GNcTiyRwZpXftQQAbpWiRgOfeJqQJ3APSwRXjeKopufcTQ9RENRdBFp7ZUPWob7/icqtmLs/MhVZvP5AZtsZmX2UGf/i0uIGMnOBhrF+65/vkviRvvTdZKih62z4YcVm8GNC2bMZbyb77qgb0/+oaYLp4JR2MbNHf/e2i8+1HVYh7naje0PflTU6XF+0PVqzpcu9RUb2S4SH4IMS7zQ2pOkbwSdIWK3xNjhPI6RJ5IMWIB0GdoS8YnCmZc5gLKORGEfUUS33JTyrXGFr+i8c5HbHN9mu5/HBzNM+eozBvE1DC5M5T1SpmplB1LMyxDIqmtn7JbaxqYpRiNrIlEub6h7LX7esdxH8dQZkYmi8nsUhyQPlk8lHGqPzToDU3LHzEmxG3zBSAQwDIbyR7FMNxf2Ed5ND68l7DMjnX4IOz1qxyW2mJPoMLRAI2rv4rC8gXakG0WoJiMY8mdaqt+EAltu/TMVMqOpRkWSiZDq4GCpLivltD1s6K2By0lcW3Vvl4ew5Smm7JQ1WCjlx6R20BFZrG6caxGQSuWjUYJcWqUxsJBCAaDcGAOTRW6z5Caoo7h/QdRVIIkcBRcNpdNVzVVv7GtEG3iXUicrtC8QkGimInzjs+Dw9msGusUygFRVaDAqKrODuXjKczM5D1Qhypj7kedUtrpE4+fBSvADNnvkf0O6PaQpYJb/mh1r0wo98Y22wXFiHb9fUief14+SJhWDwOieDialkLDLbeD49Y1tZslYhgmRywgnueJqVc0VDPq5kxQ8tAyQlgczfP92RyGWWjEIODxAD0cTc/5RKt8o1M5QZm9ZA+yTFhMGKZGkEtDzx7R09LkgqkSlq9DkG9a8IK/SjGZidkTFIZhagwJCD0tTe89UcWnv86AnlMKoaTUltlzeRiGqTk0uxOm5Tn0Z3u61btUbDRM5kcMhWGYBcH8iKEwDLPgYUFhGMY2WFAYhrENFhSGYWyDBYVhGNtgQWEYxjaKThu3tLTA0qVyLR2GYRgjH3/8MUxNTZnPQ2EYhpkJU4Ly3nvvqRrDMExpli9fDk6ns7ygMAzDmIUW97KUKTs6Oqpq84eKVjqcRebjfc3Xfyv+uzLPfL2vHAD/PwGVNl0IdlfiAAAAAElFTkSuQmCC;" vertex="1" parent="1">
          <mxGeometry x="50" y="230" width="276" height="584" as="geometry" />
        </mxCell>
      </root>
    </mxGraphModel>
  </diagram>
</mxfile>
